<svg id="Lag_1" data-name="Lag 1" xmlns="http://www.w3.org/2000/svg" viewBox="0 0 500 500"><defs><style>.cls-1{fill:#3c1460;}.cls-2{fill:#fff;}</style></defs><title>logojustcupcake</title><path class="cls-1" d="M171.6,478.49a7.51,7.51,0,0,1-7.42-6.29L139.37,321.14a7.51,7.51,0,0,1,3.68-7.73l23.62-13.52a7.53,7.53,0,0,1,7.41,0L195,311.61l26.69-12a7.51,7.51,0,0,1,6.62.23l21.86,11.67L272,299.8a7.51,7.51,0,0,1,3.53-.88,7.7,7.7,0,0,1,3.1.66l26.66,12,20.92-11.71a7.51,7.51,0,0,1,7.4,0l23.64,13.51a7.52,7.52,0,0,1,3.66,7.74l-24.8,151.06a7.53,7.53,0,0,1-7.41,6.29Z"/><path class="cls-1" d="M329.9,306.37l23.63,13.51L328.72,471H171.6L146.79,319.92l23.62-13.51,24.22,13.51,30.12-13.51,25.41,13.51,25.39-13.51,30.14,13.51,24.21-13.51m0-15a15.06,15.06,0,0,0-7.33,1.93L305,303.17l-23.23-10.51a15,15,0,0,0-13.24.45l-18.32,9.79-18.26-9.78a15,15,0,0,0-13.23-.45l-23.23,10.51-17.61-9.85a15,15,0,0,0-14.82.08l-23.62,13.51A15,15,0,0,0,132,322.33l24.85,151.09A15,15,0,0,0,171.6,486H328.72a15,15,0,0,0,14.82-12.58l24.81-151.09A15,15,0,0,0,361,306.91L337.4,293.39a15,15,0,0,0-7.5-2Z"/><polygon class="cls-2" points="353.53 319.92 328.72 470.98 309.82 470.98 329.9 306.37 353.53 319.92"/><polyline class="cls-2" points="305.69 319.92 296.57 470.98 272.81 470.98 275.55 306.37"/><polygon class="cls-2" points="250.16 319.92 256.72 470.98 236.96 470.98 224.75 306.37 250.16 319.92"/><polygon class="cls-2" points="194.63 319.92 213.72 470.98 191.39 470.98 170.41 306.37 194.63 319.92"/><path class="cls-2" d="M145.28,207.26c-4-9.74-5.26-16.86-3.62-21.19,1.81-4.77,7.73-7.63,17.25-11.89,8.2-3.66,17.51-7.84,26.2-15.27,18-15.27,20.56-29.87,23.85-48.31a215.71,215.71,0,0,1,10.76-41.52c7.51-20,16.52-32.07,23.76-39.23.25,9.61,3.38,22.34,13.18,37.94C263,77.88,277,85.11,293.32,93.47c24.64,12.67,52.55,27,59.9,53.53,8.76,31.66-4.18,40.74-4.82,41.16l-91.87,45.05Z"/><path class="cls-1" d="M238.85,47.45A100.93,100.93,0,0,0,250.3,71.83c7.5,11.83,22.33,19.52,39.58,28.37,23.27,12,49.66,25.52,56.11,48.84,5.59,20.22,1.5,30.11-1.63,32.78l-88.73,43.55L150.82,200.85c-3.19-8.8-2.29-11.76-2.15-12.12.79-2.09,8-5.33,13.3-7.69,8.23-3.69,18.49-8.29,28-16.42,20-17.08,22.94-33.57,26.35-52.65a209.68,209.68,0,0,1,10.41-40.2,120,120,0,0,1,12.1-24.32M254.79,13s-24.93,7.66-42,53.44S206.28,131,180.23,153.2s-61.49,13.74-40.35,60.5l117.55,27.54,94.43-46.38s19.52-10.24,8.59-49.83C347.28,97.42,276.92,86,263,63.84,242,30.33,254.79,13,254.79,13Z"/><path class="cls-2" d="M160.31,278.41c-12.72,0-23.76-5-30.26-13.68s-8-20.41-4.16-33.62a41.83,41.83,0,0,1,5.92-12.18,20,20,0,0,1,9.67-7.72,66,66,0,0,1,21.15-3.2c15.94,0,33.89,4.4,53.39,13.08a36.56,36.56,0,0,0,15.27,3h0c14,0,30.28-5.85,47.48-12,18.12-6.53,36.86-13.29,53.33-13.29,18.65,0,31.45,9.1,40.26,28.65,5.18,11.5,5.56,20.42,1.13,27.29-7.95,12.19-33,19.55-66.91,19.55h0c-5.5,0-9-.23-9-.23s-30.74-2.28-62.68-2.28c-27.82,0-48.58,1.68-61.67,5A52.57,52.57,0,0,1,160.31,278.41Z"/><path class="cls-1" d="M332.09,191.21v15c11.12,0,23.8,2.89,33.42,24.24,4,8.86,4.51,15.63,1.67,20.11-6.35,9.83-30.17,16.2-60.62,16.2-4.85,0-8.08-.18-8.53-.21-2.31-.17-31.62-2.3-63.21-2.3-28.44,0-49.83,1.76-63.52,5.24a44.74,44.74,0,0,1-11,1.41c-10.34,0-19.19-3.89-24.26-10.67s-6.13-16.16-3-27a34.94,34.94,0,0,1,4.91-10,12.52,12.52,0,0,1,6-4.88,57,57,0,0,1,18.69-2.79c14.87,0,31.81,4.17,50.34,12.43a44.66,44.66,0,0,0,18.32,3.62c15.34,0,32.19-6,50-12.51,17.51-6.32,35.62-12.85,50.77-12.85v-15m0,0c-33.68,0-73.88,25.37-100.82,25.37a29.67,29.67,0,0,1-12.22-2.38c-23.89-10.64-42.65-13.74-56.45-13.74A71.78,71.78,0,0,0,139,204.09a27.5,27.5,0,0,0-13.38,10.51A50,50,0,0,0,118.68,229c-10,34.18,12.57,56.91,41.64,56.91A59.48,59.48,0,0,0,175,284c14.54-3.68,37.63-4.78,59.83-4.78,32,0,62.19,2.27,62.19,2.27s3.69.24,9.55.24c26.31,0,96.39-4.81,72.65-57.48-11.31-25.06-28.19-33-47.11-33Z"/><path class="cls-1" d="M160.19,282.94c-13.64,0-25.64-5.41-32.9-14.81-7.51-9.8-9.6-23.44-5.69-38.36,5.61-21.56,22.88-26.07,36.38-26.07a65.26,65.26,0,0,1,10.63.89c-5.42,9.58-9.38,18-5.65,25.4,4.42,8.71,18.74,13.85,47.93,17.14,28.76,3.26,60.07,21,75.19,30.67-11.73-.66-31.22-1.5-51.26-1.5-27.45,0-47.83,1.64-60.56,4.87A57.11,57.11,0,0,1,160.19,282.94Z"/><path class="cls-1" d="M158,206.7c2.12,0,4.11.12,5.89.29-4.51,8.59-7.42,16.76-3.58,24.36,5,9.86,19.52,15.3,50.26,18.77,22.81,2.58,47.36,14.58,63.79,24-11.14-.51-25.18-1-39.52-1-27.71,0-48.33,1.67-61.3,5a55.05,55.05,0,0,1-13.33,1.71c-12.71,0-23.83-5-30.52-13.63-7.1-9.19-8.89-21.57-5.18-35.79,4.13-15.72,15.39-23.74,33.49-23.74m0-6c-13.89,0-33,4.5-39.3,28.29-9,34.53,12.75,56.94,41.51,56.94A60.08,60.08,0,0,0,175,284c14.54-3.68,37.63-4.77,59.83-4.77,32,0,62.19,2.26,62.19,2.26s-45-32.76-85.78-37.27c-58-6.63-50.43-20.07-37.89-41.74A64.63,64.63,0,0,0,158,200.7Z"/><path class="cls-1" d="M254.79,13s-34.33,56.38-22.89,97.6c17.54,63.19-51.05,48.82-31.53,78.09,20.44,30.54,124.63,3,124.63,3s-88.59,40.54-119.17,22.61C179.44,198.84,139,204.14,139,204.14s-5.48-9.85-3.36-17.87,10-12.56,16.52-14.28,26.2-13.79,29.53-16.85,10.23-9.31,10.23-9.31L197,134.4,204,111.67l6.91-33.32L223.3,47l16.95-23Z"/></svg>