<?xml version="1.0" encoding="utf-8"?>
<!-- Generator: Adobe Illustrator 22.0.1, SVG Export Plug-In . SVG Version: 6.00 Build 0)  -->
<svg version="1.1" id="Lag_1" xmlns="http://www.w3.org/2000/svg" xmlns:xlink="http://www.w3.org/1999/xlink" x="0px" y="0px"
	 viewBox="0 0 700 500" style="enable-background:new 0 0 700 500;" xml:space="preserve">
<style type="text/css">
	.st0{fill:#FFFFFF;}
	.st1{fill:#3C1460;stroke:#3C1460;stroke-width:4;stroke-miterlimit:10;}
	.st2{fill:#3C1460;}
</style>
<g>
	<path class="st0" d="M147.3,292.4l15.7,9L146.5,402H94.2H41.8L25.3,301.4l15.7-9l16.1,9l20.1-9l16.9,9l16.9-9l20.1,9L147.3,292.4
		 M147.3,282.4c-1.7,0-3.4,0.4-4.9,1.3l-11.7,6.6l-15.5-7c-1.3-0.6-2.7-0.9-4.1-0.9c-1.6,0-3.2,0.4-4.7,1.2l-12.2,6.5L82,283.6
		c-1.5-0.8-3.1-1.2-4.7-1.2c-1.4,0-2.8,0.3-4.1,0.9l-15.5,7l-11.7-6.6c-1.5-0.8-3.2-1.3-4.9-1.3c-1.7,0-3.4,0.4-5,1.3l-15.7,9
		c-3.6,2.1-5.6,6.2-4.9,10.3L32,403.6c0.8,4.8,5,8.4,9.9,8.4h52.3h52.3c4.9,0,9.1-3.5,9.9-8.4L172.9,303c0.7-4.1-1.3-8.2-4.9-10.3
		l-15.7-9C150.7,282.8,149,282.4,147.3,282.4L147.3,282.4z"/>
	<path class="st1" d="M94.2,402"/>
	<path class="st0" d="M165.5,297.1l-15.7-9c-0.8-0.4-1.6-0.7-2.5-0.7c-0.8,0-1.7,0.2-2.4,0.6l-13.9,7.8l-17.8-8
		c-0.7-0.3-1.4-0.4-2.1-0.4c-0.8,0-1.6,0.2-2.4,0.6l-14.6,7.8L79.6,288c-0.7-0.4-1.5-0.6-2.4-0.6c-0.7,0-1.4,0.1-2.1,0.4l-17.8,8
		L43.5,288c-0.8-0.4-1.6-0.6-2.4-0.6c-0.9,0-1.7,0.2-2.5,0.7l-15.7,9c-1.8,1-2.8,3.1-2.4,5.1l16.5,100.6c0.4,2.4,2.5,4.2,4.9,4.2
		h104.6c2.4,0,4.5-1.8,4.9-4.2l16.5-100.6C168.3,300.2,167.3,298.1,165.5,297.1z M55,402l-14-109.6l16.1,9L69.9,402H55z M85.4,402
		l-8.1-109.6l16.9,9L98.5,402H85.4z M125.1,402h-15.8l1.8-109.6l20.1,9L125.1,402z M146.5,402h-12.6l13.4-109.6l15.7,9L146.5,402z"
		/>
	<g>
		<g>
			<path class="st0" d="M86.6,119.9c1.5,4.9,3.9,10.3,7.6,16.2c4.9,7.9,14.9,13,26.4,18.9c15.5,8,33.1,17,37.4,32.5
				c3.8,13.6,0.9,20.2-1.2,21.9l-7.3,4l-66.1,14.2l-31.6-9.3l-1.8-0.5l-1.9,0.2l-20.7,2c-1.3-4.2-0.8-5.8-0.7-6
				c0.5-1.4,5.3-3.5,8.9-5.1c5.5-2.5,12.3-5.5,18.7-10.9c13.3-11.4,15.3-22.4,17.6-35.1c1.3-7.4,2.8-15.8,6.9-26.8
				C81.1,129.3,83.9,124.1,86.6,119.9 M97.2,97c0,0-16.6,5.1-28,35.6c-11.4,30.3-4.3,42.9-21.6,57.7c-17.3,14.8-41,9.1-26.9,40.3
				L49,228l34,10l70-15l8.9-4.9c0,0,13-6.8,5.7-33.2c-8.8-31.7-55.6-39.3-64.9-54.1C88.7,108.5,97.2,97,97.2,97L97.2,97z"/>
		</g>
		<g>
			<path class="st0" d="M148.7,215.7l0,10c7.4,0,15.8,1.9,22.3,16.1c2.7,5.9,3,10.4,1.1,13.4c-4.2,6.5-20.1,10.8-40.4,10.8
				c-3.2,0-5.4-0.1-5.7-0.1c-1.5-0.1-21.1-1.5-42.1-1.5c-18.9,0-33.2,1.2-42.3,3.5c-2.5,0.6-4.9,0.9-7.3,0.9
				c-6.9,0-12.8-2.6-16.2-7.1c-3.4-4.5-4.1-10.8-2-18c0.7-2.3,1.8-4.5,3.2-6.7c1.1-1.6,2.5-2.7,4-3.3c2.4-0.8,6.6-1.9,12.4-1.9
				c9.9,0,21.2,2.8,33.5,8.3c3.6,1.6,7.7,2.4,12.2,2.4c10.2,0,21.4-4,33.3-8.3c11.7-4.2,23.7-8.6,33.8-8.6V215.7 M148.7,215.7
				c-22.4,0-49.2,16.9-67.1,16.9c-3,0-5.7-0.5-8.1-1.5c-15.9-7.1-28.4-9.2-37.6-9.2c-7.3,0-12.5,1.3-15.7,2.4
				c-3.4,1.2-6.5,3.6-8.9,7c-1.7,2.4-3.5,5.6-4.6,9.6c-6.7,22.8,8.4,37.9,27.7,37.9c3.2,0,6.5-0.4,9.8-1.2
				c9.7-2.5,25.1-3.2,39.8-3.2c21.3,0,41.4,1.5,41.4,1.5s2.5,0.2,6.4,0.2c17.5,0,64.2-3.2,48.4-38.3
				C172.6,221,161.3,215.7,148.7,215.7L148.7,215.7z"/>
		</g>
		<g>
			<path class="st0" d="M34.2,276.8c-9.1,0-17.1-3.6-21.9-9.9c-5-6.5-6.4-15.6-3.8-25.6C12.3,227,23.8,224,32.8,224
				c2.8,0,5.3,0.3,7.1,0.6c-3.6,6.4-6.3,12-3.8,16.9c2.9,5.8,12.5,9.2,31.9,11.4c19.2,2.2,40,14,50.1,20.4c-7.8-0.4-20.8-1-34.1-1
				c-18.3,0-31.8,1.1-40.3,3.2C40.5,276.4,37.3,276.8,34.2,276.8z"/>
			<path class="st0" d="M32.8,226c1.4,0,2.7,0.1,3.9,0.2c-3,5.7-4.9,11.2-2.4,16.2c3.3,6.6,13,10.2,33.5,12.5
				c15.2,1.7,31.5,9.7,42.5,16c-7.4-0.3-16.8-0.6-26.3-0.6c-18.4,0-32.2,1.1-40.8,3.3c-3,0.8-6,1.1-8.9,1.1
				c-8.5,0-15.9-3.3-20.3-9.1c-4.7-6.1-5.9-14.4-3.4-23.8C13.2,231.3,20.7,226,32.8,226 M32.8,222c-9.2,0-22,3-26.2,18.8
				c-6,23,8.5,37.9,27.6,37.9c3.2,0,6.5-0.4,9.9-1.3c9.7-2.5,25.1-3.2,39.8-3.2c21.3,0,41.4,1.5,41.4,1.5s-30-21.8-57.1-24.9
				c-38.6-4.4-33.6-13.3-25.3-27.7C43,223.2,38.6,222,32.8,222L32.8,222z"/>
		</g>
		<path class="st0" d="M97.2,97c0,0-22.9,37.5-15.2,65c11.7,42.1-34,32.5-21,52c13.6,20.3,83,2,83,2s-59,27-79.4,15.1
			c-17.6-10.3-44.5-6.8-44.5-6.8s-3.6-6.6-2.2-11.9s6.7-8.4,11-9.5s17.5-9.2,19.7-11.2c2.2-2,6.8-6.2,6.8-6.2l3.4-7.6l4.6-15.1
			l4.6-22.2l8.3-20.9l11.3-15.3L97.2,97z"/>
	</g>
</g>
<g>
	<path class="st0" d="M304.4,255.4c-0.1,0.6,0,1.2,0,1.8c0,0.7,0.2,1.5-0.2,2c-1,1.4-1.5,2.9-0.8,4.6c0.1,0.3,0.1,0.9-0.1,1
		c-1.5,1-0.8,2.8-1.5,4.1c-0.8,1.4-1,3-1.2,4.4c-0.4,2.3-1.1,4.3-2.8,5.9c-1,0.9-0.2,2.1-0.7,3.2c-0.7,1.4-0.6,3.2-2.3,4.1
		c-0.2,0.1-0.4,0.4-0.4,0.6c0.1,2.3-1.5,3.7-3,5c-0.4,0.3-0.6,0.7-1.1,0.9c-1.2,0.5-2,1.5-2,3c0,0.6,0.1,1.4-0.4,1.7
		c-3,1.3-3.7,5.2-7,6.2c-1.1,2.2-2.9,3.4-5.2,4c-0.5,2.2-2.4,2.2-4.1,2.6c-0.6,0.1-1.3,0.2-1.6,0.7c-1.5,2.2-3.8,2.1-6,2.4
		c-0.2,0-0.5-0.1-0.8-0.1c-4.7,1.3-8.7-0.2-12.4-3c-0.9-0.7-2-1.1-3.1-1.2c-2.6-0.2-4.5-1.7-6.3-3.4c-1.8-1.7-3.7-3.4-5.1-5.4
		c-1.3-1.8-2.9-3.3-4.5-4.9c-3.2-3.3-5.3-7.2-7.2-11.4c-1.1-2.5-2-5-2.6-7.6c-0.7-2.9-1.8-5.9-1.7-8.8c0.1-2.8-0.9-5.8,0.5-8.6
		c-0.7-2.9,0.1-5.7,0.2-8.5c0.1-1.9,0.1-3.8,1.2-5.4c0.1-0.1,0.2-0.3,0.2-0.5c-0.3-2,0.7-3.8,1-5.8c0.2-1.2,0-2.3,1-3.2
		c0.6-0.5,0.3-1.5,0.1-2.3c-0.9-3.2-0.6-6.4,0.2-9.6c0.4-1.4,0.9-2.8,0.8-4.3c0-0.7,0.3-1.2,0.7-1.6c0.7-0.9,1.2-1.8,1.1-3.1
		c0-0.4,0-1,0.3-1.2c1.4-1.1,1.5-3,2.8-4.2c1.7-1.6,2-4.3,4.2-5.5c-0.1-2.3,2.1-2.6,3.1-3.9c1.1-1.3,2.3-2.6,3.5-3.8
		c1.8-1.8,4.2-3.1,5.5-5.4c0.1-0.1,0.2-0.3,0.4-0.4c4.2-2.1,7.6-5.4,12.1-7c1.4-0.5,2.8-1.1,4-2.1c1.3-1,2.9-1.7,4.6-1.4
		c1.2,0.2,2.4-0.5,3.6-0.5c2.7,0.1,5,1.2,7,3c2.4,2.1,4.5,4.7,7.6,5.8c0.5,0.2,0.9,0.8,1.3,1.3c2.4,3.3,4.9,6.5,7.2,9.8
		c1.3,1.8,2.1,3.8,2.6,5.9c0.6,2.8,2.6,5,3.2,7.9c0.9,4.8,2.7,9.3,3.8,14.1c0.5,2.1,1.2,4.3,0.8,7.1c0,0.5,0,1.5,0.3,2.4
		c0.7,2.9,0.6,5.8,0,8.6c-0.1,0.3-0.2,0.7-0.2,1C306,249.8,304.9,252.5,304.4,255.4z M283,218.8c-1.5-3.3-1.2-7-2.6-10.2
		c-0.5-1.3-1.5-2.2-2.6-1.6c-1.9,1-4.1,0.9-5.9,1.7c-0.8,0.3-2.9,0.1-2.4,2.3c0.1,0.6-0.6,0.7-1.2,0.4c-1-0.6-1.5-0.2-1.7,0.8
		c-0.2,1-0.8,1.5-1.5,2c-0.6,0.4-0.9,1-1.4,1.3c-1.4,1.3-2.2,3.6-4.8,3.1c-0.5-0.1-1.1,0.4-1.2,0.9c-0.4,1.1-1.3,1.7-2.2,2.4
		c-0.3,0.3-0.7,0.7-0.7,1.1c-0.2,1.9-1,3.6-1,5.6c0,2,0.5,4.2-1.4,5.8c-0.6,0.6-0.5,1.4-0.2,2.2c0.7,1.9,0.4,3.7-0.4,5.5
		c-0.5,1-0.9,2.2-0.7,3.5c0.2,1.4-0.4,2.7-1.3,3.7c-0.2,0.2-0.5,0.3-0.6,0.7c-0.3,2.4-0.2,4.8-0.9,7.2c-0.4,1.4-1.1,2.9-1,4.5
		c0.2,2.1-0.2,4.1-0.5,6.2c-0.4,3.6-1.2,7.2-0.6,10.8c0.2,1.2-0.4,2.4,0.1,3.6c0.4,1.1,0.4,2.2,0.3,3.3c0,0.6-0.1,1.2,0,1.8
		c0.3,2.1,1.6,2.6,3.6,1.8c1.4-0.5,2.7-1.8,4.2-1.6c1.6,0.2,2.5-0.6,3.3-1.6c1.4-1.6,3.3-2.7,4.7-4.3c1.1-1.2,3-1.7,2.7-3.9
		c0-0.3,0.5-0.7,0.7-1c1.1-2.1,2-4.4,3.9-5.9c0.1-0.1,0.2-0.3,0.1-0.5c-0.3-1.2,0.6-2,1.1-2.8c1.8-2.4,3.1-5,3.3-8.1
		c0-0.5,0.4-1,0.6-1.4c1.1-2,2.1-4.1,2.1-6.5c0-0.5,0.1-0.9,0.5-1.2c1-0.6,0.8-1.4,0.6-2.3c-0.2-0.9-0.5-1.9,0.3-2.4
		c0.8-0.5,0.6-1.2,0.8-1.9c0.5-2.1,0.5-4.2,1-6.2c0.5-2,2-4.2,0.6-6.5c-0.1-0.2,0-0.6,0.2-0.7c1.4-1.2,1-2.9,0.9-4.4
		c0-0.9,0.2-1.9,0.3-2.7C282.4,221.7,283.7,220.3,283,218.8z M264.4,311.3c0-0.4-0.2-0.7-0.6-0.6c-0.8,0.3-1.5-0.1-2.2-0.3
		c-2.7-0.5-5.5-1.2-8.3,0.3c2,0.6,3.9,1.6,6,1.9c0.8,0.1,1.5,0.5,2.2-0.1c0.7-0.6,1.4-1,2.3-0.7C264.2,312,264.4,311.6,264.4,311.3z
		 M271.2,184.6c2.9,1.1,3.9,1.3,6.1,1.1C274.8,184.2,274.7,184.2,271.2,184.6z"/>
	<path class="st0" d="M385.1,288.1c-0.7,0.3-1.4,0.6-1.4,1.6c0,0.6-0.7,1-1.3,1.2c-1.5,0.5-2.9,1.6-4.6,1.6c-0.6,0-1.2,0.2-1.5,0.8
		c-0.1,0.2-0.3,0.5-0.5,0.6c-3.3,1.2-6.3,3-9.8,3.6c-2.6,0.5-5.1,1.6-7.9,1.3c-1-0.1-2.2,0.2-3.2,0.8c-1.6,1-3.2,2.1-5.3,1.8
		c-0.7-0.1-1.4,0.6-2.1,0.9c-1.3,0.6-2.6,1.4-4.2,1.4c-0.7,0-1.4,0.3-1.9,0.7c-1.2,1-2.5,1.6-4.2,1.8c-1.2,0.1-2.5,1-3.3,1.7
		c-1.4,1.3-3.2,0.7-4.5,1.6c-0.6,0.4-1.3,0-1.4-0.7c-0.3-1-1.3-1.7-0.6-3c0.4-0.8-0.4-1.5-1.3-1.1c-1,0.4-2,0.7-3,0.9
		c-1.9,0.3-2.6,0-3.3-1.6c-0.4-0.9-0.4-2.1-1.9-2c-0.3,0-0.5-0.3-0.5-0.5c-0.2-1.8-1.7-2.5-2.9-3.4c-2-1.4-2.7-3.5-3.6-5.7
		c-1.2-3.1-1-6.3-1.7-9.4c-0.3-1.1,0.8-2.1,0-3.4c-0.5-0.8-0.8-2-0.8-3.2c0.1-5.8,0.1-11.6,1-17.4c0.5-3.2,0.1-6.3-0.8-9.5
		c-0.4-1.3-0.3-2.5,0.1-3.9c0.5-1.6,1.3-3.4,0.5-5.2c-0.4-0.9-0.3-1.8-0.2-2.6c0.6-3,0.4-6,0.7-8.9c0.2-1.5,0-2.9-0.1-4.3
		c-0.3-3.2,0.6-6.2,0.9-9.3c0.1-0.5,0.4-1,0.3-1.5c-0.6-3.2,0.4-6.3,0.1-9.5c0-0.5,0.1-1,0.2-1.5c0.5-1.6,0.7-3.2,0.2-4.9
		c-0.5-1.8,0.7-3.3,0.8-5.1c0-0.8,2.9-1,3.8-0.4c0.4,0.3,0.6,0.8,1.2,1c1.1,0.4,1.7,0.1,2-1.1c0.3-1.3,0.5-2.5,0.8-4
		c2.5,1.7,2.5,1.7,2.8,5c0.8,0.3,0.5-0.8,1-0.9c0.3,0.7-0.1,2.1,0.7,2.2c1.4,0.2,2.1,2,3.7,1.6c0.3-0.1,0.8-0.4,0.9,0
		c0.2,1.9,3,2.7,2.3,5.1c-0.2,0.6-0.2,1.2,0.1,1.8c1.4,2.6,1.8,5.4,2.6,8.2c0.6,2,0.7,4.3,0.2,6.1c-0.6,2.1-0.8,4.2-1,6.4
		c-0.5,5.8-1.3,11.7-0.5,17.6c0.3,2-0.6,3.9-0.5,5.9c0.2,2.5,0.2,5,0.3,7.5c0.2,3.4-0.5,6.7,0.4,10.1c0.1,0.3,0,0.7-0.1,1
		c-1.7,3.7,0.1,7.3,0,11c0,0.9,1.9,1.4,2.7,0.6c1.6-1.8,3.6-1.3,5.6-1.6c1.3-0.2,2.8-0.2,4-1.4c0.8-0.8,2.6-0.9,3.9-1
		c2.6-0.2,5.1-0.5,7.7-0.9c1.1-0.2,2.3,0.1,3.3,0.1c2.9-0.1,5.5,1,8.3,1.1c3.2,0.1,6.7,0.4,9,3.2c0.3,0.3,0.7,0.5,1.1,0.7
		c1,0.3,3.2,1.6,3.8,2.2c0.2,0.2,0.5,0.3,0.6,0.5c0.2,2.5,2.2,4.1,3,6.2C386.2,287.1,386.1,287.7,385.1,288.1z M331.6,306.2
		c0-1.2-1.1-0.9-2.1-1.1c0.3,0.9-0.4,1.9,0.8,2.3C331.2,307.6,331.6,306.8,331.6,306.2z M361.5,295.6c0-0.3,0-0.8-0.1-0.9
		c-0.9-0.4-1.4,0.2-2.1,0.8C360.2,295.9,360.8,295.6,361.5,295.6z M361.3,276.6c0.4,0.1,0.6,0.2,0.7,0.2c0.3-0.1,1,0.3,0.7-0.4
		C362.6,276,361.9,276.3,361.3,276.6z M363,295.3c-0.5-0.9-0.6,0.3-1,0.3c-0.1,0-0.3,0-0.4,0.1c0,0.1-0.1,0.3-0.1,0.4
		c-0.1,1,0.6,0.6,1,0.5C363.2,296.5,363.3,295.8,363,295.3z M367.3,276.6c-0.9-0.5-1.6-0.9-2.4-0.1
		C365.7,277,366.3,276.7,367.3,276.6z"/>
	<path class="st0" d="M448.3,286.1c-1,0.8-0.8,2.1-1.2,3.1c-0.3,0.6-0.4,1.5-1.4,0.5c-0.4-0.4-0.5-0.1-0.7,0.2c-1,1.2-1.6,2.6-2.1,4
		c-0.1,0.3,0,1-0.3,0.9c-2.2-1-1.2,1.4-2,1.7c-2.3,1-3,3.4-4.4,5.1c-0.2,0.2-0.5,0.5-0.6,0.4c-1.6-0.8-2.1,0.6-2.2,1.4
		c-0.2,1.2-1,0.6-1.3,0.9c-0.4,0.4-0.3,1.7-1.3,0.4c0,0-0.2,0-0.2,0c-0.3,1.5-2.3,1.1-2.8,2.1c-0.6,1.3-1.8,1.6-2.8,2
		c-1.7,0.8-3.3,1.7-4.1,3.5c-0.4,0.8-1.1,1-1.9,0.4c-1.7,2-4.4,1.4-6.5,2.4c-0.7,0.4-1.5,0.1-2.6-1.1c2,0.4,2.8-1.1,4.3-1.1
		c-2.1-2.6-4.2-3.5-7.2-3.1c-1.9,0.3-3.5-1.1-3.4-3c0.1-1,0.2-1.9-1-2.4c-0.8-0.3-0.5-1-0.4-1.6c0.1-1.1-0.1-2-1.1-2.8
		c-1.8-1.4-1.9-3.6-2.4-5.5c-0.2-0.6,0.1-1.4,0.6-1.6c1.5-0.7,2.4-2.2,4-2.8c1.3-0.4,2.4-1.3,3.3-2.5c1.1-1.4,3-1.8,4.1-3.1
		c1-1.3,1.5-2.9,2.7-4c1.1-1,2.6-1.6,2.9-3.3c0-0.1,0.2-0.3,0.4-0.3c2.5-0.9,3.8-3.3,5.8-4.8c0.1-0.1,0.2-0.1,0.2-0.1
		c0.1-2.2,2.2-2.2,3.4-3.2c0.5-0.4,1.2-1,1.1-1.7c-0.3-1.7,0.8-2.3,2-2.8c1.2-0.5,1.2-0.9,0.1-1.7c-0.8-0.6-1.8-1.1-2.5-1.9
		c-1.1-1.1-2.4-1.7-3.9-2c-0.6-0.1-1.2-0.4-1.7-0.6c-0.5-0.2-0.7-0.5-0.6-1c0.1-0.5,0.6-0.3,0.9-0.3c0.9,0.1,1.9,0.3,2.7,0.9
		c0.6,0.4,1.2,0.7,1.9,0.1c0.1-0.4-0.1-0.8-0.4-0.9c-3.7-1.1-6.4-4.4-10.6-5c0.5,1.9,2.6,2,3.6,3.7c-1.3-0.4-2.7,0.5-3.4-1.2
		c0-0.1-0.3-0.2-0.5-0.2c-2,0.5-3.1-1.1-4.6-1.7c-2-0.8-3.3-2.4-5.2-3.3c-1-0.5-0.9-1.6-1.5-2.3c-1-1.2-2-2.5-3.3-3.2
		c-2.5-1.4-3.5-4.1-5.3-6c-0.5-0.5-0.4-1.4-0.6-2c-1.4-2.9-1.8-6.2-3.4-9c-2.2-4-2.6-8.2-2.3-12.5c0-0.5,0.1-0.9,0.5-1.1
		c1.4-1,1.7-2.6,2-4.1c0.4-2.6,1.4-4.7,3.7-6c0.9-0.5,1-1.5,1.6-2.3c0.8-0.9,1.4-1.9,2.8-2c1.6-0.1,1.9-1.6,2.7-2.6
		c0.6-0.8,1.1-1.6,2.2-1.6c0.7,0,1.1-0.5,1.5-0.9c0.7-0.8,1.4-1.6,2.5-1.6c0.4,0,0.7-0.1,0.9-0.4c1-2.3,3.5-1.9,5.3-2.6
		c1-0.4,2-0.4,3-1.2c1-0.8,2.5-1,4-1c1.1,0,2.2-0.2,3.4-0.3c0.3,0,0.6,0,0.9-0.2c1.2-1.1,2.5-1.5,3.9-1c1.4,0.5,2.7,1.1,4.1,1.5
		c0.8,0.3,1.2,1,1.7,1.6c1,1.3,1.9,2.7,2.8,4.1c0.5,0.7,0.8,1.5,1.8,1.7c0.9,0.2,1.3,1.2,1.5,2c0.4,1.6,0.9,3,0.8,4.8
		c-0.2,2.1,0.5,4.3,0.3,6.4c-0.1,0.8-0.4,1.8-0.8,1.7c-1.4-0.4-1.7,0.9-2.4,1.3c-1.5,1.1-3,1.9-5,1.7c-0.4-0.1-1,0-1.2,0.3
		c-1,1.2-2.4,1.5-3.8,1.6c-0.6,0.1-0.6,0.5-0.8,0.8c-0.2,0.4-0.7,0.7-1.1,0.5c-1.5-0.7-2.1,0-2.5,1.3c-0.1,0.3-0.7,0.6-1.1,0.7
		c-1.2,0.3-2.3,0.5-2.7,2c-0.1,0.4-0.6,0.5-1,0.7c-1.7,0.6-3.7,0.9-3.9,3.4c-0.1,1-1.5,1.5-2.4,2.2c-1.7,1.4-1.8,2,0.3,2.8
		c3.6,1.3,6.6,4,10.4,4.8c0.3,0.1,0.6,0.1,0.7,0.3c2.3,2.6,5.8,3.3,8.3,5.7c2.4,2.4,4.8,4.8,7,7.4c1.5,1.8,2.6,4.1,4.7,5.4
		c0.5,0.3,0.3,0.7,0.4,1.1c0.1,0.6,0.3,1.1,0.8,1.6c1.9,2,2.6,4.4,3.2,7c1.3,5.3,1.6,10.8,1.9,16.2
		C451.6,281.2,450.8,284.1,448.3,286.1z M413.5,251.4c-2.2-0.8-3.9-2.5-6.3-3C408.8,250.4,410.9,251.4,413.5,251.4z M419.1,236.1
		c0.2-0.1,0.6-0.1,0.6-0.3c0-0.4-0.3-0.6-0.6-0.7c-0.3-0.1-0.7,0-0.8,0.4C418.3,236.1,418.7,236,419.1,236.1L419.1,236.1z
		 M431.1,190.9c1.6,0.3,2.4,1.1,3.5,0.7C433.6,191.6,433.1,190.1,431.1,190.9z"/>
	<path class="st0" d="M539.3,280.5c-0.8,1.2-2.2,2.6-3.5,2.9c-3.5,0.8-6.4,3.8-10.4,2.7c-2.6,1-4.9-0.6-7.3-0.9
		c-1.3-0.1-2.6-0.3-3.9-0.3c-1.4,0-2.8-1-4.3-1c-2,0-3.8-0.9-5.4-1.6c-3.2-1.5-7-1.6-9.9-4c-1-0.8-2.3-0.8-3.4-1.1
		c-1.3-0.4-2.7-0.9-2.9-2.6c0.6-0.4,1.4,0.1,2-0.5c-0.5-0.7-1.2-1-2-0.8c-1.3,0.2-2.3-0.5-3.4-1.1c-3.2-1.9-5.7-4.7-8.7-7
		c-0.2,0.2-0.5,0.4-0.5,0.6c0.5,3.9-0.4,7.8-0.2,11.7c0.3,4.8,0.8,9.5,1.7,14.1c0.3,1.7,0,3.4,0.3,5.2c0.3,1.9-0.1,3.9,1.2,5.6
		c0.1,0.1,0.2,0.4,0.2,0.5c-0.7,2.1,0.2,4,0.6,6.1c-0.9,0-1.2-0.6-1.6-1c-2-2-4.2-3.1-7.2-2.1c-1.9,0.7-4.2-0.8-5.1-2.6
		c-1.5-3-2.7-6.1-5-8.6c-1.3-1.5-1.8-3.4-2.3-5.2c-1.6-5.1-2.9-10.3-3.5-15.6c-0.3-2.4-0.7-4.9-0.2-7.3c0.2-0.9-0.3-1.7-0.3-2.5
		c0.1-1.8-0.2-3.5,0-5.4c0.2-1.5-0.4-3.1-0.5-4.8c-0.1-1.4,0-2.6,0.6-3.8c0.3-0.7,0.4-1.2,0.2-2c-0.6-3.7-0.5-7.3,0.2-11
		c0.1-0.3,0.4-0.7,0.3-0.9c-1.1-3.9,0.3-7.7,0.5-11.5c0.2-3.9,0.4-7.9,1.3-11.8c0.1-0.3,0.2-0.7,0.1-1c-0.3-1.1-0.4-1.9,0.8-2.9
		c1-0.8-1.1-2.2-0.4-3.1c1.2-1.6,0.4-3.3,0.7-4.9c0.8-4.6,0.6-9.4,2-14c0.2-0.7,0.3-1.3,0.3-2c-0.1-2.1,1.2-2.9,3.1-2.2
		c0.3,0.1,0.6,0.4,0.9,0.5c2.9,1.6,2.7,0.6,3.2-1.8c0.2-0.8,0-1.6,0-3c1.5,1.4,2.5,2.3,3.6,3.3c0.3,0.3,0.4,0.7,0.4,1.2
		c0.3,2.4,2.7,3.8,5.2,2.8c0.4,1.2,0.2,2.8,1.5,3.7c0.3,0.2,0.5,1,0.4,1.5c-0.3,2.8,1.1,5.2,1.9,7.7c0.6,1.9,0.9,3.7,0.7,5.8
		c-0.3,4.1-0.9,8.2-1.2,12.4c-0.3,4.1-0.9,8.3-1.3,12.4c0,0.1-0.1,0.2-0.1,0.3c0,0.7-0.2,1.5,0.5,1.9c0.6,0.4,1.2,0,1.7-0.3
		c2.2-1.3,4.1-2.9,5.6-4.9c1.6-2.1,3.4-3.8,5.7-5.2c3.1-2,6.4-3.6,9.1-6.3c0.3-0.3,0.6-0.6,0.6-1.1c0-0.3,0.1-0.8,0.4-0.9
		c2.2-1,3.1-3.7,5.6-4.2c0.4-0.1,0.9-0.2,1-0.7c0.5-2.9,3.1-2.8,5-3c1.5-0.2,2.7-0.3,3.5-1.7c0.5-0.8,1.3-1.1,2.2-1.2
		c1.8-0.2,3.6-0.6,5.3-1c2.1-0.5,3.5,0.4,4.1,2.7c0.2,0.8,0.8,1.1,1.2,1.1c2.4,0.3,2.4,2.2,2.6,3.9c0.2,1.1,0.5,2.1,0.8,3.2
		c0.9,3,1.4,5.9,0.2,9.1c-0.7,2-1.5,4.1-2,6.2c-0.3,1.3-1,1.6-2.1,1.4c-0.8-0.2-1.6,0.4-1.5,0.8c0.2,1.2-1.4,1.2-1.3,2.2
		c0,0.1-0.3,0.3-0.3,0.3c-1.8-1.2-1.6,0.9-2.3,1.5c-0.9,0.8-1.6,2-3.1,1.6c-0.7-0.2-0.6,0.4-0.8,0.7c-0.6,1.2-1.4,2.3-2.6,3.1
		c-0.7,0.4-1.4,0.9-1.9-0.1c-0.4,0.6-0.2,1-0.3,1.4c0,0.5-0.3,0.8-0.6,1.1c-0.7,0.8-1.9-0.8-2.5,0.6c-0.4,0.9-0.7,1.8-1.8,2.1
		c-0.7,0.2-0.9,1.5-2.1,0.9c-0.5-0.2-0.4,0.4-0.4,0.7c-0.2,0.6-0.4,0.9-1.1,0.5c-0.1-0.1-0.3-0.1-0.5-0.1c-0.9,0.3,0.3,2-0.8,1.6
		c-0.9-0.4-1.4,0-1.8,0.4c-0.6,0.5-1.1,1-1.8,1.3c-0.4,0.2-0.5,0.7-0.4,1.1c0.1,0.7-0.3,1-0.7,1.5c-0.6,0.9-1.8-0.5-2.2,0.7
		c-0.3,0.8-0.5,1.6-1.2,2.2c-0.8,0.7-0.6,1.3,0.6,1.6c1.3,0.3,2.7,0.4,4.1,0.6c3.4,0.4,6.4,2.1,9.6,2.7c0.3,0.1,0.7,0.3,1,0.3
		c3.7,0,7,1.5,10.6,2c0.6,0.1,1.1,0.4,1.7,0.6c1.5,0.4,2.8,1.4,4.5,0.8c0.2-0.1,0.5,0.1,0.8,0.1c0.8,0.2,1.5,0.6,1.6,1.5
		c0.1,1-0.8,0.9-1.4,1.2c-0.3,0.1-0.7,0.1-0.8,0.6c2.1,1.1,4.4,1.2,6.8,1.8c0.1,1.4,1.2,2.8,0.6,4.5c-0.1,0.3-0.1,0.7,0.3,0.9
		c1.2,0.6,0.9,1.8,1,2.8C538.9,278,540.1,279.4,539.3,280.5z M512.1,281.5c-0.4-0.5-0.6-1.4-1.5-1.2c-0.5,0.1-0.9,0.1-1.4-0.1
		c-4.7-1.5-9.3-2.8-14-4.3c-0.6-1-1.5-1.1-2.7-0.8c0.8,1,1.7,1.1,2.7,0.8c1,1.5,2.5,2.2,4.1,2.8c2.4,0.9,5.3,0.5,7.4,2.6
		c0.1,0.1,0.4,0.2,0.5,0.1c1.3-0.7,2.1,0,3,0.7c0.4,0.3,1.1,0.6,1.6-0.1C512.1,282.1,512.2,281.7,512.1,281.5z M494.6,257.9
		c0.4,1,1.1,1.1,2,1.3C496.2,258.2,495.6,258.1,494.6,257.9z M501.9,261c2,0.5,4,1,6,1.5c-1.6-1.8-3.8-1.7-5.8-2.2
		C502,260.5,502,260.8,501.9,261z M514.8,282.6c-0.1-0.3-0.3-0.6-0.5-0.5c-0.2,0-0.5,0.3-0.5,0.4c-0.1,0.3,0.2,0.5,0.4,0.4
		C514.4,282.8,514.6,282.7,514.8,282.6z M519.8,283.1c-1.1-0.3-2-0.8-3.3-0.2C518.3,283.8,518.3,283.8,519.8,283.1z M518.3,264.6
		c0.4,0.4,0.9,0.4,1.4,0.1c-0.4-0.3-0.8-0.7-1.3-0.5C518.3,264.2,518.2,264.6,518.3,264.6z M525.9,283.4c-1.1-0.7-2.4,0.5-3.5-0.4
		c-0.4-0.3-1.2-0.8-1.5-0.1c-0.4,0.9,0.7,1,1.1,1.5c0.2,0.3,0.6,0.1,1,0c0.9-0.3,1.8-0.5,2.8-0.1c0.5,0.2,0.9,0.1,1-0.4
		C526.8,283.2,526.2,283.6,525.9,283.4z M521.3,265.3c0.4,0.1,0.7,0.2,0.9,0.2s0.5,0,0.7-0.3c-0.3-0.1-0.5-0.2-0.7-0.2
		C522,265.1,521.7,265.2,521.3,265.3z"/>
	<path class="st0" d="M606.4,209.5c0.1,0.3,0.6,0.5,0.4,0.8c-0.9,1.9,0,3.9-0.3,5.9c-0.1,0.6-0.1,1.2-0.8,1.4
		c-1.7,0.5-2.9,1.8-4.8,1.9c-6.2,0.4-12,2.2-17.8,4.4c-2.7,1-5.4,2.1-8.2,2.6c-2.7,0.5-5.2,1.6-7.6,2.9c-0.3,0.2-0.7,0.5-0.9,0.4
		c-2.3-0.7-4.4,0.6-6.5,1.1c-2.3,0.5-3.9,0.4-5.4-1.3c-0.2-0.3-0.5-0.4-0.8-0.7c-0.1,0,0-0.2-0.1-0.3c0.7-0.3,1.3,0.1,2,0.2
		c0.4,0,0.9,0.1,1.1-0.4c0.2-0.5,0-0.9-0.4-1.2c-1.3-1.1-2.6-2.4-4.5-2.2c-0.6,0.1-1.2,0-1.8-0.1c-1.9-0.3-2.3-0.8-2.4-2.7
		c0-0.6,0.1-1.2-0.5-1.6c-0.6-0.4-0.8-0.9-0.7-1.6c0.1-0.7-0.2-1.4-0.7-1.9c-2.5-2.7-1.9-5.9-1.7-9.1c0.1-0.9,1.1-1,1.6-1.6
		c1.9-1.7,3.9-3.1,6.7-2.8c1.7,0.2,3.3-0.6,4.4-1.6c1.6-1.4,3.3-1.9,5.2-1.8c1.7,0.1,3.3,0.1,4.7-1c0.5-0.4,1.3-0.5,2-0.4
		c4.4,0.6,8.8,0.7,13.1,0.5c2.9-0.1,5.9-0.2,8.8-0.1c2.1,0,4.4-0.1,6.4,0.5c2.1,0.6,3.9,2,5.9,3.1c0.4,0.3,0.6,0.8,0.6,1.4
		c-0.1,0.7-0.8,0.5-1.4,0.9C603.8,206.7,605.7,207.5,606.4,209.5L606.4,209.5z M599.8,290.4c1,3.6,0.8,4.2-2.3,6.2
		c-1.5,0.9-2.7,2-4.7,2.3c-1.4,0.2-2.5,2.1-4.4,1.7c-0.9,1.6-2.8,1.5-4.1,2.5c-1,0.8-2.6,0.8-3.9,1.5c-3.5,1.9-7.2,3.7-10.9,5.2
		c-2.9,1.2-5.8,2.3-9,2.4c-1.9,0.1-3.5-1-5.2-1.3c-0.3-0.1-0.6-0.3-0.5-0.8c0.1-0.4,0.5-0.5,0.8-0.5c0.9,0.2,1.9,0.4,2.8,0.6
		c0.7,0.2,1.3,0.4,2.2-0.4c-1-0.6-2-0.9-2.9-1.5c-1.8-1.1-3.8-0.9-5.8-1c-2.1-0.1-2.1-0.3-2.9-2.3c-0.6-1.6-1.6-3-2.6-4.5
		c-0.5-0.7-1.2-1.2-1.7-2c-1.6-2.7-0.3-5.4,2.3-7.3c1.8-1.3,3.8-1.8,5.7-2.7c1.2-0.6,2.6-0.7,3.6-2c0.5-0.7,2-0.6,3.1-0.8
		c1.2-0.1,2.5,0.1,3.5-0.1c1-0.2,2.1-0.5,3.1-0.8c1.9-0.6,4,0.4,5.8-0.6c2.4-1.2,4.9,0,7.4-0.6c0.4-0.1,0.9,0.2,1.4-0.3
		c0.2-0.3,0.8-0.5,1.2-0.4c3.2,0.9,6.3-1,9.5,0c0.7,0.2,1.4,0.3,2,0.3c1.4,0,3.1-0.6,3.1,1.9c0,0.3,0.8,0.7,1.2,0.8
		c1.5,0.4,1.8,1.6,2,2.9C599.6,289.4,599.6,289.9,599.8,290.4z M603.7,245.7c1.9,2.7,0.9,5.6,0.2,8.4c-0.2,0.9-1.6,1.2-2.6,1.4
		c-1.1,0.2-2.1,0.9-3,1.1c-2.8,0.6-4.9,2.7-7.7,3.2c-0.7,0.1-1.5,0.3-1.9,1.2c-0.6,1.4-2.4,0.7-3.3,1.8c0,0.1-0.6-0.2-0.9-0.4
		c-0.5-0.3-1-0.4-1.5-0.2c-3.1,0.9-6,2-8.3,4.4c-0.4,0.4-0.8,1.1-1.1,1c-2.8-0.3-4.3,2.8-7,2.7c-0.1,0-0.2,0-0.2,0.1
		c-1.9,1.9-4.7,1.4-7,2.4c-0.4,0.2-0.8,0.2-1.3,0.2c-1,0-2.2,0-3-0.6c-1-0.8-1.5,0.6-2.5,0.3c-2.4-0.7-2.4-0.4-3.2-3.2
		c0.4,0.2,0.6,0.2,0.7,0.3c0.6,0.5,1,1.8,2,0.8c0.8-0.8-0.2-1.4-0.7-1.9c-0.8-0.9-1.7-1.7-3.1-1.8c-1,0-2-0.7-1.7-1.6
		c0.6-1.6-0.4-3-0.1-4.5c0.3-1.6-0.7-3.2-0.8-4.8c-0.2-2.2,0-3.9,2.1-5.1c1.8-1,2.2-3.1,3.6-4.5c0.4-0.4,0.8-0.9,1.4-1
		c1.2-0.2,2.5,0,2.8-1.7c0.1-0.4,0.8-0.3,1.2-0.2c1.5,0.3,2.9,0.3,3.9-1.2c0.5-0.7,1.3-0.7,2.1-0.6c1.6,0.2,3.2,0.2,4.7-0.6
		c1-0.5,2.3-0.2,3.3-0.1c2.3,0.3,4.3-0.6,6.5-0.9c3.2-0.4,6.5-0.5,9.7-0.6c4.2-0.2,8.3,1.1,12.6,0.7c1.5-0.1,4,2.4,3.5,3.8
		C602.9,244.8,603.2,245.1,603.7,245.7z"/>
	<path class="st0" d="M689.7,294.6c-0.1,0.1-0.3,0.2-0.4,0.2c-1.5,0-2.9-0.6-4.5-0.5c-0.9,0.1-2.2,0-2.8-1.3
		c-0.1-0.2-0.4-0.4-0.5-0.4c-1.1,0.4-1.8-0.8-2.6-0.9c-3.3-0.5-5.6-3.1-8.7-4c-1.6-0.5-3.1-1.9-4.7-2.7c-2.5-1.2-4.8-2.7-7-4.4
		c-1.5-1.2-3.4-2.1-5-3.3c-0.4-0.3-0.9-0.2-1.3-0.3c-1.8-0.4-3.6-0.8-4.6-2.7c-0.1-0.2-0.4-0.3-0.6-0.4c-1.7-0.6-3-1.7-4.4-2.8
		c-2.3-2-4.8-3.7-7-5.7c-0.4-0.4-0.8-0.7-1.6-0.9c-0.4,1.9-1.1,3.7-0.7,5.7c0.3,1.1-1.3,1.4-0.8,2.6c0.3,0.8,0.9,1.7,0.4,2.5
		c-0.9,1.8,0.3,4-0.9,5.7c-0.1,0.1,0,0.5,0.1,0.7c0.5,1.7,0.2,3.4-0.3,5c-0.5,1.7-0.6,3.4-0.4,5.2c0.2,1.7,0.3,3.3-0.3,5
		c-0.4,1.3,0,2.8-0.2,4.2c-0.3,2.2-0.3,4.4-1,6.6c-0.8,2.3-0.4,4.7-1.2,7c-0.4,0-0.6-0.2-0.9-0.3c-1.2-0.7-1.6-0.6-1.8,0.9
		c-0.1,0.6,0.3,1.5-0.7,1.4c-0.8-0.1-0.7-0.9-0.8-1.5c-0.2-2.5-0.5-2.7-2.9-2c-1.1,0.3-2.2,0-2.8-1.1c-0.4-0.6-1-1.1-1.2-1.7
		c-1.3-2.5-3.8-4.2-4.8-6.9c-0.6-1.5-1.1-2.9-1.3-4.6c-0.2-2.2-0.8-4.4-1.1-6.6c-0.5-3.1-0.7-6.2-0.3-9.3c0.1-0.9-0.1-1.6-0.3-2.4
		c-0.3-1.3-0.2-2.5,0.3-3.7c0.7-1.7,0.9-3.6,0.6-5.4c-0.2-1.1-0.1-2.3,0.1-3.3c0.9-3.6,0.6-7.3,1.5-10.9c0.1-0.4,0.1-1-0.1-1.4
		c-1-1.8-0.1-3.6-0.3-5.4c-0.2-1.6,0.2-3.1,0.4-4.7c0.3-2,0.9-4.1,0.7-6.2c0-0.3,0.3-0.6,0.6-0.7c0.4-0.2,0.7-0.5,0.5-0.9
		c-0.9-1.9,0.7-3.7,0.2-5.6c-0.1-0.2,0-0.5,0-0.7c0.7-3.1,1.5-6.2,1.5-9.5c0-0.9,0.5-1.7,0.9-2.4c1.2-2.2,0.7-4.5,0.7-6.7
		c0-0.7,0-1.4,0.3-2c0.2-0.3,0.6-0.7,0.4-1.1c-0.6-1.3,0.3-2.2,0.9-3c0.5-0.6,0.5-1,0.4-1.6c0-0.9-0.5-2,0.7-2.5
		c0.1-0.1,0.3-0.5,0.2-0.6c-0.7-1.6,0.3-2.7,1-3.9c0.5-0.9,0.8-1.9,0.3-3c-0.4-0.9,0-1.5,0.9-1.8c0.4-0.1,0.9-0.2,1-0.5
		c1.2-2,2.9-1.8,4.8-0.9c0.4-0.9-0.4-1.9,0.6-2.3c0.7-0.3,0.9-1.5,1.5-1.2c1.1,0.5,2.5,1.4,2.6,2.6c0.2,1.5,1,2.1,2,2.6
		c0.9,0.4,1.9-0.2,2.8-0.5c0.9-0.3,1.5-1.4,2.3-1.9c0.6-0.4,1.9,0.2,2.8-0.3c0.3-0.1,0.7-0.1,0.9-0.3c2-1.8,4.3-1.6,6.7-1.4
		c2,0.2,4,0.6,6,0.9c2.6,0.5,4.6,1.9,6.8,3c2.6,1.4,4.4,3.7,6.6,5.6c0.7,0.6,1.3,1.2,2.2,1.7c0.3,0.2,0.8,0.4,0.9,0.7
		c2.3,4,4.8,8,5.2,12.9c0.2,1.7,0.9,3.4,1.4,5.1c0.4,1.5,0.6,3,0.7,4.5c0,0.8,0,1.5-0.5,2.3c-0.7,1.2-0.5,2.6-0.6,4
		c0,0.7,0,1.2-0.9,1.5c-1,0.4-1.3,1.7-1.9,2.6c-0.9,1.3-1.6,2.6-2.8,3.7c-1,0.9-1.8,2.3-2.5,3.5c-0.7,1.2-1,0.2-1.7-0.2
		c0.1,1.1-0.1,1.9-1.1,2.4c-1.7,0.7-3.3,1.6-3.9,3.6c-0.2,0.7-1.2,0.5-1.7,1.1c-1.2,1.6-3.1,2.5-4.7,3.4c-1.3,0.7-2.4,2.1-3.8,2.4
		c-1.3,0.2-2.1,1.2-3.3,1.5c-0.3,0.1-0.6-0.1-0.7,0.3c-0.1,0.5,0.2,0.7,0.5,0.9c2.6,1.4,5.1,2.9,7.7,4.4c3.1,1.8,6.3,3.6,9.6,5
		c1.9,0.8,3.8,2.2,5.7,3c3.3,1.5,5.7,4.3,8.8,6c1,0.5,1.8,1.3,2.5,2.1c0.7,0.8,1.4,1.6,2.3,2c1.9,0.8,2.7,2.1,2.7,4.2
		c0,1.3,0.3,2.5,1,3.6c1,1.7,1.2,3.7,1.8,6.1c-2.4-1.5-4.9-0.4-6.7-2.1c-2.3,1-4.2-1.2-6.5-0.9c0.6,0.6,3.6,2,4.3,2.1
		c1.5,0.3,3,0.7,4.5,1C689.2,293.3,689.5,293.8,689.7,294.6z M649.2,224.4c0.9-1.2,1.8-2.4,3.2-3.2c1.1-0.7,2.7-1.5,3.1-3.3
		c0.2-0.8,0.7-1.8,1.7-2.2c1.1-0.5,0.5-1.5,0.4-2.1c-0.1-0.4-1.1-0.6-1.6-0.3c-1.6,1.1-3.3,0.5-4.8,0c-1.9-0.6-3.8-0.3-5.4-0.6
		c-2.8,0.4-5.5,0.5-5.6,4.2c0,0.1-0.1,0.1-0.1,0.2c-1.1,1.6-1.2,3.4-1.5,5.2c-0.4,2.7-0.5,5.5-1.7,8.1c-0.2,0.4-0.2,0.8-0.3,1.2
		c-0.1,0.5-0.2,1,0.4,1.2c0.5,0.2,0.8,0.1,1.2-0.3c2.4-2.2,5.3-3.8,8-5.6C647.1,226.3,648.3,225.6,649.2,224.4z M656.4,194.5
		c2.2,0.6,4.3,1.4,6.6,1.2C660.7,194.3,657.9,193.8,656.4,194.5z"/>
</g>
<g>
	<g>
		<g>
			<path class="st0" d="M-709.2,310c-2.4,0-4.5-1.8-4.9-4.2l-16.5-100.6c-0.3-2.1,0.6-4.1,2.4-5.1l15.7-9c0.8-0.4,1.6-0.7,2.5-0.7
				c0.8,0,1.7,0.2,2.4,0.6l13.9,7.8l17.8-8c0.7-0.3,1.4-0.4,2.1-0.4c0.8,0,1.6,0.2,2.4,0.6l14.6,7.8l14.6-7.8
				c0.7-0.4,1.5-0.6,2.4-0.6c0.7,0,1.4,0.1,2.1,0.4l17.8,8l13.9-7.8c0.8-0.4,1.6-0.6,2.4-0.6c0.9,0,1.7,0.2,2.5,0.7l15.7,9
				c1.8,1,2.8,3.1,2.4,5.1l-16.5,100.6c-0.4,2.4-2.5,4.2-4.9,4.2H-709.2z"/>
			<path class="st0" d="M-603.7,195.4l15.7,9L-604.5,305h-52.3h-52.3l-16.5-100.6l15.7-9l16.1,9l20.1-9l16.9,9l16.9-9l20.1,9
				L-603.7,195.4 M-603.7,185.4c-1.7,0-3.4,0.4-4.9,1.3l-11.7,6.6l-15.5-7c-1.3-0.6-2.7-0.9-4.1-0.9c-1.6,0-3.2,0.4-4.7,1.2
				l-12.2,6.5l-12.2-6.5c-1.5-0.8-3.1-1.2-4.7-1.2c-1.4,0-2.8,0.3-4.1,0.9l-15.5,7l-11.7-6.6c-1.5-0.8-3.2-1.3-4.9-1.3
				c-1.7,0-3.4,0.4-5,1.3l-15.7,9c-3.6,2.1-5.6,6.2-4.9,10.3l16.5,100.6c0.8,4.8,5,8.4,9.9,8.4h52.3h52.3c4.9,0,9.1-3.5,9.9-8.4
				l16.5-100.6c0.7-4.1-1.3-8.2-4.9-10.3l-15.7-9C-600.3,185.8-602,185.4-603.7,185.4L-603.7,185.4z"/>
		</g>
		<path class="st1" d="M-656.8,305"/>
		<polygon class="st2" points="-588,204.4 -604.5,305 -617.1,305 -603.7,195.4 		"/>
		<polyline class="st2" points="-619.9,204.4 -625.9,305 -641.8,305 -639.9,195.4 		"/>
		<polygon class="st2" points="-656.8,204.4 -652.5,305 -665.6,305 -673.8,195.4 		"/>
		<polygon class="st2" points="-693.8,204.4 -681.1,305 -696,305 -709.9,195.4 		"/>
	</g>
	<g>
		<g>
			<path class="st0" d="M-664.4,22.9c1.5,4.9,3.9,10.3,7.6,16.2c4.9,7.9,14.9,13,26.4,18.9c15.5,8,33.1,17,37.4,32.5
				c3.7,13.5,1,20.1-1.1,21.8l-59.1,29l-69.8-16.3c-2.1-5.9-1.5-7.8-1.4-8.1c0.5-1.4,5.3-3.5,8.9-5.1c5.5-2.5,12.3-5.5,18.7-10.9
				c13.3-11.4,15.3-22.4,17.6-35.1c1.3-7.4,2.8-15.8,6.9-26.8C-669.9,32.3-667.1,27.1-664.4,22.9 M-653.8,0c0,0-16.6,5.1-28,35.6
				c-11.4,30.3-4.3,42.9-21.6,57.7c-17.3,14.8-41,9.1-26.9,40.3L-652,152l62.9-30.9c0,0,13-6.8,5.7-33.2
				c-8.8-31.7-55.6-39.3-64.9-54.1C-662.3,11.5-653.8,0-653.8,0L-653.8,0z"/>
		</g>
		<g>
			<path class="st0" d="M-602.3,118.7l0,10c7.4,0,15.8,1.9,22.3,16.1c2.7,5.9,3,10.4,1.1,13.4c-4.2,6.5-20.1,10.8-40.4,10.8
				c-3.2,0-5.4-0.1-5.7-0.1c-1.5-0.1-21.1-1.5-42.1-1.5c-18.9,0-33.2,1.2-42.3,3.5c-2.5,0.6-4.9,0.9-7.3,0.9
				c-6.9,0-12.8-2.6-16.2-7.1c-3.4-4.5-4.1-10.8-2-18c0.7-2.3,1.8-4.5,3.2-6.7c1.1-1.6,2.5-2.7,4-3.3c2.4-0.8,6.6-1.9,12.4-1.9
				c9.9,0,21.2,2.8,33.5,8.3c3.6,1.6,7.7,2.4,12.2,2.4c10.2,0,21.4-4,33.3-8.3c11.7-4.2,23.7-8.6,33.8-8.6V118.7 M-602.3,118.7
				c-22.4,0-49.2,16.9-67.1,16.9c-3,0-5.7-0.5-8.1-1.5c-15.9-7.1-28.4-9.2-37.6-9.2c-7.3,0-12.5,1.3-15.7,2.4
				c-3.4,1.2-6.5,3.6-8.9,7c-1.7,2.4-3.5,5.6-4.6,9.6c-6.7,22.8,8.4,37.9,27.7,37.9c3.2,0,6.5-0.4,9.8-1.2
				c9.7-2.5,25.1-3.2,39.8-3.2c21.3,0,41.4,1.5,41.4,1.5s2.5,0.2,6.4,0.2c17.5,0,64.2-3.2,48.4-38.3
				C-578.4,124-589.7,118.7-602.3,118.7L-602.3,118.7z"/>
		</g>
		<g>
			<path class="st0" d="M-716.8,179.8c-9.1,0-17.1-3.6-21.9-9.9c-5-6.5-6.4-15.6-3.8-25.6c3.7-14.3,15.2-17.3,24.2-17.3
				c2.8,0,5.3,0.3,7.1,0.6c-3.6,6.4-6.3,12-3.8,16.9c2.9,5.8,12.5,9.2,31.9,11.4c19.2,2.2,40,14,50.1,20.4c-7.8-0.4-20.8-1-34.1-1
				c-18.3,0-31.9,1.1-40.3,3.2C-710.5,179.4-713.7,179.8-716.8,179.8z"/>
			<path class="st0" d="M-718.2,129c1.4,0,2.7,0.1,3.9,0.2c-3,5.7-4.9,11.2-2.4,16.2c3.3,6.6,13,10.2,33.5,12.5
				c15.2,1.7,31.5,9.7,42.5,16c-7.4-0.3-16.8-0.6-26.3-0.6c-18.4,0-32.2,1.1-40.8,3.3c-3,0.8-6,1.1-8.9,1.1
				c-8.5,0-15.9-3.3-20.3-9.1c-4.7-6.1-5.9-14.4-3.4-23.8C-737.8,134.3-730.3,129-718.2,129 M-718.2,125c-9.2,0-22,3-26.2,18.8
				c-6,23,8.5,37.9,27.6,37.9c3.2,0,6.5-0.4,9.9-1.3c9.7-2.5,25.1-3.2,39.8-3.2c21.3,0,41.4,1.5,41.4,1.5s-30-21.8-57.1-24.9
				c-38.6-4.4-33.6-13.3-25.3-27.7C-708,126.2-712.4,125-718.2,125L-718.2,125z"/>
		</g>
		<path class="st0" d="M-653.8,0c0,0-22.9,37.5-15.2,65c11.7,42.1-34,32.5-21,52c13.6,20.3,83,2,83,2s-59,27-79.4,15.1
			c-17.6-10.3-44.5-6.8-44.5-6.8s-3.6-6.6-2.2-11.9c1.4-5.3,6.7-8.4,11-9.5c4.3-1.1,17.5-9.2,19.7-11.2c2.2-2,6.8-6.2,6.8-6.2
			l3.4-7.6l4.6-15.1l4.6-22.2l8.3-20.9l11.3-15.3L-653.8,0z"/>
	</g>
</g>
<g>
	<path class="st0" d="M224.7,361.4c0-17.8,12.6-30.7,30.3-30.7c13.1,0,23.3,7.2,27.4,18.8h-2.9c-4-10-13-16-24.5-16
		c-16,0-27.5,11.7-27.5,27.9c0,16.3,11.5,27.8,27.5,27.8c11.9,0,21.1-6.4,25-17.1h2.8c-4,12.3-14.5,19.8-27.9,19.8
		C237.3,392,224.7,379.2,224.7,361.4z"/>
	<path class="st0" d="M293.6,371.9v-26.6h2.7v26.3c0,11,6.4,17.8,16.6,17.8c10.3,0,16.6-6.8,16.6-17.8v-26.3h2.7v26.6
		c0,12.3-7.5,20.1-19.3,20.1C301.1,392,293.6,384.1,293.6,371.9z"/>
	<path class="st0" d="M371.7,344.3c13.6,0,23.3,10.3,23.3,23.8c0,13.6-9.7,23.8-23.3,23.8c-9.3,0-17.1-5.1-20.9-12.8v28.1h-2.7
		v-62.1h2.1l0.5,12C354.5,349.4,362.3,344.3,371.7,344.3L371.7,344.3z M392.3,368.2c0-12.2-8.7-21.2-20.7-21.2
		c-11.9,0-20.8,9.1-20.8,21.2c0,12,8.9,21.2,20.8,21.2C383.5,389.4,392.3,380.4,392.3,368.2z"/>
	<path class="st0" d="M403.6,368.2c0-13.7,10.2-23.8,23.6-23.8c10.2,0,18.1,5.7,21.4,14.5h-2.8c-3.2-7.4-10.2-11.8-18.6-11.8
		c-11.9,0-20.8,9.1-20.8,21.2c0,12,9,21.2,20.8,21.2c8.3,0,15.3-4.4,18.7-11.9h2.8c-3.4,8.9-11.6,14.6-21.5,14.6
		C413.8,392,403.6,381.7,403.6,368.2z"/>
	<path class="st0" d="M503.3,345.2v45.9h-2.4l-0.3-12c-3.7,7.8-11.3,12.9-20.9,12.9c-13.3,0-23.4-10.3-23.4-23.8
		c0-13.6,10.1-23.8,23.4-23.8c9.6,0,17.3,5.1,21,12.9l0.4-12L503.3,345.2z M500.5,368.2c0-12.2-8.7-21.2-20.7-21.2
		c-11.9,0-20.8,9.2-20.8,21.2c0,12.1,8.9,21.2,20.8,21.2C491.8,389.4,500.5,380.4,500.5,368.2z"/>
	<path class="st0" d="M531.5,368.4h-8.6v22.7h-2.7V329h2.7v36.9h8.6l17.9-20.7h3.4l-19,22l20.7,23.9h-3.5L531.5,368.4z"/>
	<path class="st0" d="M604,369h-42.8c0.4,11.7,9,20.3,20.3,20.3c8.1,0,14.6-4.2,18.2-11.3h2.9c-4.3,9.1-11.7,14-21.1,14
		c-13.1,0-23-10.3-23-23.9c0-13.5,9.9-23.8,23-23.8c13.2,0,22.6,10.3,22.6,23.5C604.1,368.2,604,368.6,604,369z M581.5,346.9
		c-11.1,0-19.5,8.2-20.3,19.5h40.2C600.7,354.8,592.3,346.9,581.5,346.9L581.5,346.9z"/>
	<path class="st0" d="M612.1,378.6h2.7c0.7,6.9,6.2,10.8,14.9,10.8c8.8,0,14.6-4.1,14.6-10.5c0-7.9-7.5-9.4-15-10.6
		c-7.9-1.4-16.2-2.8-16.2-11.8c0-7.3,6.6-12.2,16.3-12.2c9.8,0,16,4.9,16.4,12.8H643c-0.4-6.5-5.5-10.3-13.8-10.3
		c-8.2,0-13.6,3.9-13.6,9.6c0,6.9,6.6,8,14.1,9.2c8,1.3,17.1,3,17.1,13.2c0,7.9-6.9,13.1-17.3,13.1
		C619.2,392,612.8,386.9,612.1,378.6z"/>
</g>
</svg>
