<svg id="Lag_1" data-name="Lag 1" xmlns="http://www.w3.org/2000/svg" viewBox="0 0 700 500"><defs><style>.cls-1{fill:#fff;}</style></defs><title>logotest</title><path class="cls-1" d="M147.26,292.37l15.74,9L146.48,402H41.84L25.32,301.4l15.73-9,16.13,9,20.06-9,16.92,9,16.91-9,20.07,9,16.12-9m0-10a10,10,0,0,0-4.88,1.28l-11.73,6.56-15.47-7a10,10,0,0,0-8.82.3l-12.2,6.52L82,283.55a10,10,0,0,0-8.81-.3l-15.47,7-11.73-6.56a10,10,0,0,0-9.87.05l-15.73,9A10,10,0,0,0,15.45,303L32,403.62A10,10,0,0,0,41.84,412H146.48a10,10,0,0,0,9.87-8.38L172.87,303A10,10,0,0,0,168,292.73l-15.74-9a9.94,9.94,0,0,0-5-1.33Z"/><path class="cls-1" d="M165.49,297.06l-15.74-9a5,5,0,0,0-4.93,0l-13.93,7.8-17.76-8a5.12,5.12,0,0,0-2.06-.44,5,5,0,0,0-2.35.59l-14.56,7.77L79.6,288a5,5,0,0,0-4.41-.15l-17.77,8L43.49,288a5,5,0,0,0-4.93,0l-15.73,9a5,5,0,0,0-2.45,5.15L36.9,402.81A5,5,0,0,0,41.84,407H146.48a5,5,0,0,0,4.93-4.19l16.52-100.6A5,5,0,0,0,165.49,297.06ZM55,402l-14-109.63,16.13,9L69.89,402Zm30.35,0L77.24,292.37l16.92,9L98.53,402Zm39.7,0H109.24l1.83-109.63,20.07,9Zm21.41,0H133.89l13.37-109.63,15.74,9Z"/><path class="cls-1" d="M86.63,119.94a67.41,67.41,0,0,0,7.62,16.24c5,7.88,14.87,13,26.36,18.89,15.5,8,33.07,17,37.37,32.53,3.77,13.64.93,20.23-1.18,21.9l-7.33,4L83.39,227.69l-31.57-9.28L50,217.86l-1.92.18-20.75,2c-1.27-4.24-.81-5.76-.73-6,.53-1.39,5.34-3.55,8.86-5.12,5.48-2.46,12.31-5.52,18.65-10.94,13.32-11.37,15.28-22.35,17.55-35.06a139.67,139.67,0,0,1,6.93-26.77,80.59,80.59,0,0,1,8.06-16.2M97.24,97s-16.6,5.1-28,35.59C57.83,163,64.94,175.55,47.59,190.37s-40.95,9.15-26.87,40.29L49,228l34,10,70-15,8.89-4.89s13-6.82,5.72-33.18c-8.77-31.71-55.63-39.33-64.89-54.07C88.7,108.54,97.24,97,97.24,97Z"/><path class="cls-1" d="M148.72,215.68v10c7.41,0,15.85,1.92,22.26,16.14,2.66,5.9,3,10.41,1.11,13.39C167.86,261.76,152,266,131.72,266c-3.23,0-5.38-.12-5.68-.14-1.54-.11-21.06-1.53-42.1-1.53-18.94,0-33.18,1.17-42.3,3.49a30,30,0,0,1-7.31.94c-6.89,0-12.78-2.59-16.16-7.11s-4.08-10.76-2-18A23.24,23.24,0,0,1,19.44,237a8.32,8.32,0,0,1,4-3.25,38,38,0,0,1,12.45-1.86c9.9,0,21.18,2.78,33.52,8.28a29.78,29.78,0,0,0,12.2,2.41c10.22,0,21.44-4,33.32-8.33,11.66-4.21,23.72-8.56,33.81-8.56v-10m0,0c-22.43,0-49.2,16.89-67.14,16.89A19.82,19.82,0,0,1,73.46,231c-15.91-7.09-28.4-9.15-37.59-9.15a47.78,47.78,0,0,0-15.73,2.41,18.27,18.27,0,0,0-8.91,7,33.21,33.21,0,0,0-4.63,9.57c-6.66,22.76,8.37,37.9,27.73,37.9a39.44,39.44,0,0,0,9.77-1.25c9.68-2.45,25.06-3.18,39.84-3.18,21.33,0,41.42,1.51,41.42,1.51s2.46.16,6.36.16c17.52,0,64.19-3.2,48.38-38.28-7.53-16.69-18.77-22-31.37-22Z"/><path class="cls-1" d="M34.24,276.77c-9.08,0-17.07-3.6-21.91-9.86-5-6.53-6.39-15.61-3.79-25.55C12.28,227,23.78,224,32.77,224a43.74,43.74,0,0,1,7.08.59c-3.61,6.38-6.25,12-3.76,16.92,2.94,5.8,12.48,9.22,31.92,11.41,19.15,2.17,40,14,50.07,20.43-7.81-.44-20.79-1-34.14-1-18.28,0-31.85,1.09-40.33,3.24A38.13,38.13,0,0,1,34.24,276.77Z"/><path class="cls-1" d="M32.77,226c1.41,0,2.74.08,3.92.19-3,5.72-4.94,11.16-2.38,16.22,3.32,6.57,13,10.19,33.47,12.5,15.19,1.72,31.54,9.71,42.48,16-7.42-.34-16.77-.64-26.32-.64-18.45,0-32.18,1.11-40.82,3.31a36.61,36.61,0,0,1-8.88,1.14c-8.46,0-15.87-3.31-20.32-9.08-4.73-6.12-5.92-14.36-3.45-23.83C13.22,231.34,20.72,226,32.77,226m0-4c-9.25,0-22,3-26.17,18.84-6,23,8.49,37.92,27.64,37.92a39.89,39.89,0,0,0,9.86-1.27c9.68-2.45,25.06-3.18,39.84-3.18,21.33,0,41.42,1.51,41.42,1.51S95.4,254,68.23,251C29.63,246.58,34.65,237.63,43,223.2A43.19,43.19,0,0,0,32.77,222Z"/><path class="cls-1" d="M97.24,97S74.38,134.55,82,162c11.68,42.08-34,32.51-21,52,13.61,20.34,83,2,83,2s-59,27-79.36,15.06c-17.58-10.3-44.5-6.77-44.5-6.77s-3.65-6.56-2.24-11.9,6.66-8.36,11-9.51,17.45-9.18,19.67-11.22,6.81-6.2,6.81-6.2l3.4-7.61,4.62-15.14L68,140.52l8.27-20.91,11.29-15.3Z"/><path class="cls-1" d="M304.41,255.38a13.46,13.46,0,0,0,0,1.8c0,.69.21,1.47-.21,2.05a4.52,4.52,0,0,0-.84,4.61c.1.29.06.86-.13,1-1.52,1-.77,2.85-1.48,4.13a13.52,13.52,0,0,0-1.23,4.43,10,10,0,0,1-2.76,5.88c-1,.94-.2,2.1-.74,3.16-.71,1.39-.64,3.17-2.26,4.09a.88.88,0,0,0-.39.65c.1,2.34-1.47,3.67-3,5a4.28,4.28,0,0,1-1.14.94,3.18,3.18,0,0,0-2,3c0,.59.13,1.44-.45,1.69-3,1.32-3.72,5.22-7,6.24a7.57,7.57,0,0,1-5.25,4.05c-.49,2.23-2.43,2.17-4.07,2.57-.6.14-1.27.21-1.63.74-1.45,2.19-3.77,2.12-6,2.35-.25,0-.53-.13-.76-.06-4.7,1.33-8.73-.16-12.38-3a5.77,5.77,0,0,0-3.1-1.21c-2.64-.2-4.52-1.68-6.27-3.4a45.49,45.49,0,0,1-5.13-5.45,49.61,49.61,0,0,0-4.46-4.91A46.26,46.26,0,0,1,222,276.75c-.66-2.93-1.84-5.91-1.71-8.81s-.89-5.81.5-8.57c-.7-2.85.11-5.68.21-8.52.07-1.86.12-3.77,1.24-5.41a.76.76,0,0,0,.16-.49c-.31-2,.67-3.83,1-5.75.17-1.18,0-2.28,1-3.24.58-.53.29-1.53.08-2.25a18,18,0,0,1,.23-9.61,13.89,13.89,0,0,0,.77-4.32,2.39,2.39,0,0,1,.7-1.63,4.5,4.5,0,0,0,1.13-3.06,1.64,1.64,0,0,1,.32-1.21c1.38-1.1,1.48-3,2.75-4.18,1.69-1.58,2-4.28,4.22-5.47-.12-2.26,2.06-2.64,3.14-3.92s2.28-2.56,3.51-3.78c1.82-1.8,4.15-3.09,5.52-5.36a1,1,0,0,1,.35-.38c4.17-2.07,7.58-5.44,12.1-7a13.53,13.53,0,0,0,4-2.05,6.19,6.19,0,0,1,4.61-1.4c1.24.18,2.38-.51,3.59-.46a11.33,11.33,0,0,1,7,3c2.42,2.09,4.47,4.66,7.62,5.82.51.19.91.8,1.27,1.28,2.42,3.25,4.86,6.49,7.21,9.8a16.62,16.62,0,0,1,2.63,5.92c.65,2.8,2.63,5.05,3.2,7.91.94,4.78,2.72,9.34,3.83,14.06.5,2.12,1.24,4.33.81,7.1a12.93,12.93,0,0,0,.25,2.37,18.08,18.08,0,0,1,0,8.65,2.18,2.18,0,0,0-.16,1C306,249.75,304.88,252.54,304.41,255.38ZM283,218.8c-1.52-3.27-1.18-7-2.56-10.25-.54-1.25-1.49-2.19-2.65-1.61-1.92,1-4,.94-5.94,1.68-.79.32-2.93.11-2.36,2.32.15.57-.64.73-1.16.42-1-.57-1.53-.17-1.68.79a3,3,0,0,1-1.52,2,11.65,11.65,0,0,0-1.37,1.34c-1.4,1.27-2.23,3.59-4.81,3.13a1.3,1.3,0,0,0-1.23.86,5.62,5.62,0,0,1-2.2,2.4,1.79,1.79,0,0,0-.72,1.06c-.17,1.89-1,3.64-1,5.6s.46,4.18-1.4,5.81c-.65.57-.46,1.44-.19,2.21a7.14,7.14,0,0,1-.45,5.52,6.15,6.15,0,0,0-.66,3.52,4.72,4.72,0,0,1-1.34,3.73c-.18.21-.52.26-.56.66-.31,2.4-.22,4.81-.93,7.23-.41,1.41-1.12,2.95-1,4.47a31.72,31.72,0,0,1-.48,6.17c-.42,3.59-1.18,7.16-.61,10.83.18,1.15-.41,2.4.06,3.58a7,7,0,0,1,.28,3.34,13.82,13.82,0,0,0,0,1.82c.29,2.13,1.56,2.6,3.62,1.82,1.42-.54,2.67-1.79,4.23-1.62a3.6,3.6,0,0,0,3.35-1.57c1.4-1.63,3.26-2.72,4.73-4.3,1.13-1.21,3-1.68,2.72-3.91,0-.31.49-.67.69-1.05,1.13-2.1,2-4.37,3.92-5.94a.59.59,0,0,0,.14-.49c-.29-1.2.56-2,1.12-2.81a15.28,15.28,0,0,0,3.31-8.07,3.77,3.77,0,0,1,.63-1.41,13.58,13.58,0,0,0,2.1-6.5,1.25,1.25,0,0,1,.46-1.15c1-.59.79-1.43.6-2.29s-.51-1.89.32-2.42.63-1.18.79-1.91c.46-2.06.54-4.16,1-6.22s2-4.21.63-6.5a.76.76,0,0,1,.17-.72c1.41-1.24,1-2.88.92-4.39,0-1,.21-1.86.27-2.74C282.36,221.71,283.67,220.28,283,218.8Zm-18.57,92.48c0-.38-.19-.72-.61-.56-.83.31-1.5-.14-2.25-.29-2.73-.55-5.48-1.19-8.29.31,2,.59,3.87,1.64,6,1.88.76.08,1.5.53,2.18-.08a2.16,2.16,0,0,1,2.33-.65C264.19,312,264.4,311.64,264.42,311.28Zm6.78-126.64c2.94,1.09,3.91,1.25,6.12,1.1C274.81,184.24,274.73,184.23,271.2,184.64Z"/><path class="cls-1" d="M385.14,288.06c-.73.28-1.38.61-1.42,1.62,0,.62-.67,1-1.27,1.19-1.54.53-2.89,1.6-4.63,1.6a1.51,1.51,0,0,0-1.52.82,1.08,1.08,0,0,1-.52.55c-3.26,1.23-6.33,3-9.8,3.63-2.61.5-5.09,1.63-7.9,1.25a5.46,5.46,0,0,0-3.24.82c-1.63,1-3.16,2.09-5.28,1.81-.65-.09-1.4.57-2.11.89-1.33.61-2.61,1.41-4.16,1.36a3,3,0,0,0-1.91.75,7.58,7.58,0,0,1-4.18,1.78,6.14,6.14,0,0,0-3.28,1.67c-1.39,1.33-3.18.68-4.52,1.64a.94.94,0,0,1-1.44-.65c-.28-1-1.3-1.7-.6-3,.44-.85-.36-1.52-1.28-1.15a14.48,14.48,0,0,1-3,.87c-1.88.35-2.56,0-3.33-1.65-.42-.9-.41-2.14-1.91-2-.3,0-.46-.28-.49-.53-.23-1.79-1.69-2.51-2.94-3.42-2-1.43-2.71-3.47-3.6-5.68-1.25-3.09-1-6.28-1.68-9.37-.26-1.13.8-2.15,0-3.42a5.93,5.93,0,0,1-.78-3.18,124.94,124.94,0,0,1,1-17.39,22.19,22.19,0,0,0-.82-9.46,6.36,6.36,0,0,1,.14-3.94c.53-1.58,1.3-3.43.53-5.23a4.33,4.33,0,0,1-.16-2.55c.6-3,.39-6,.72-8.92a20.64,20.64,0,0,0-.12-4.32c-.29-3.19.57-6.18.92-9.26.06-.51.37-1,.28-1.5-.58-3.19.37-6.35.07-9.53a4,4,0,0,1,.22-1.53,8,8,0,0,0,.21-4.86c-.54-1.79.69-3.34.78-5.07,0-.76,2.86-1,3.79-.37.42.29.65.8,1.18,1,1.09.4,1.74.06,2-1.14s.47-2.54.75-4c2.5,1.72,2.5,1.72,2.78,5,.84.27.46-.79,1-.9.31.72-.14,2.05.72,2.17,1.43.2,2.08,2,3.71,1.56.3-.09.85-.41.89,0,.24,1.94,3,2.72,2.28,5.1a2.32,2.32,0,0,0,.15,1.78c1.4,2.56,1.75,5.44,2.55,8.19a11.68,11.68,0,0,1,.16,6.14,35.15,35.15,0,0,0-1,6.38c-.51,5.84-1.28,11.67-.5,17.56.26,2-.6,3.89-.46,5.94.18,2.48.21,5,.33,7.48.16,3.36-.51,6.75.41,10.09a1.62,1.62,0,0,1-.13,1c-1.67,3.67.11,7.34,0,11,0,.86,1.9,1.41,2.67.55,1.64-1.82,3.65-1.32,5.64-1.61,1.26-.18,2.75-.18,4-1.38.83-.82,2.55-.88,3.9-1,2.57-.24,5.13-.5,7.68-.92a26.41,26.41,0,0,1,3.34.09c2.86-.11,5.5,1,8.34,1.08,3.23.09,6.67.37,9.05,3.21a2.27,2.27,0,0,0,1.08.68,15.85,15.85,0,0,1,3.76,2.17c.19.18.54.33.56.51.22,2.46,2.17,4.08,3,6.22C386.2,287.07,386.11,287.69,385.14,288.06Zm-53.57,18.09c-.05-1.23-1.09-.91-2.14-1.06.35.89-.35,1.91.85,2.25C331.16,307.59,331.6,306.81,331.57,306.15Zm29.93-10.54c0-.33,0-.8-.09-.85-.9-.38-1.42.2-2.09.82A5,5,0,0,0,361.5,295.61Zm-.25-19c.41.12.58.24.71.2.29-.08,1,.3.75-.43C362.59,276,361.93,276.32,361.25,276.57ZM363,295.3c-.53-.89-.6.33-1,.3a1.23,1.23,0,0,0-.42.07,3.17,3.17,0,0,0-.12.41c-.14,1,.57.61.95.55C363.19,296.49,363.29,295.85,363,295.3Zm4.32-18.73c-.94-.45-1.57-.93-2.38-.1C365.71,277,366.33,276.73,367.28,276.57Z"/><path class="cls-1" d="M448.26,286.1c-1,.8-.79,2.06-1.19,3.08-.25.65-.44,1.49-1.35.55-.38-.38-.47-.06-.72.23a12.84,12.84,0,0,0-2.14,4c-.11.3,0,1-.3.86-2.18-1-1.25,1.41-2,1.73-2.33,1-3,3.41-4.44,5.14-.16.19-.5.48-.6.43-1.58-.8-2.06.6-2.17,1.44-.15,1.21-1,.56-1.33.85s-.33,1.74-1.31.42c0,0-.23,0-.23,0-.34,1.52-2.28,1.14-2.76,2.15-.62,1.3-1.76,1.59-2.78,2.05-1.73.78-3.26,1.65-4.12,3.48a1.15,1.15,0,0,1-1.9.38c-1.73,2-4.43,1.37-6.51,2.43-.73.37-1.52.14-2.61-1.11,2,.38,2.77-1.15,4.3-1.1-2.12-2.6-4.23-3.47-7.16-3.05a2.87,2.87,0,0,1-3.41-3c.05-1,.2-1.9-1-2.36-.81-.32-.49-1-.43-1.56a2.88,2.88,0,0,0-1.06-2.78c-1.8-1.39-1.94-3.56-2.43-5.54a1.39,1.39,0,0,1,.6-1.62c1.5-.7,2.38-2.22,4-2.78a6.94,6.94,0,0,0,3.26-2.5c1.06-1.45,3.05-1.78,4.06-3.08s1.52-2.93,2.74-4,2.61-1.61,2.88-3.34c0-.14.23-.3.38-.35,2.53-.86,3.76-3.28,5.76-4.78.07,0,.22-.08.22-.12.08-2.2,2.16-2.23,3.4-3.19.53-.41,1.21-1,1.1-1.7-.29-1.74.76-2.25,2.05-2.8s1.19-.87.09-1.66a17.23,17.23,0,0,1-2.49-1.87,7.2,7.2,0,0,0-3.86-2,12.12,12.12,0,0,1-1.73-.58.77.77,0,0,1-.57-1c.15-.47.57-.3.89-.25a6.24,6.24,0,0,1,2.69.88c.58.38,1.24.65,1.87.08a.8.8,0,0,0-.41-.91c-3.71-1.15-6.44-4.37-10.61-5,.49,1.93,2.57,2,3.58,3.71-1.34-.4-2.73.5-3.35-1.24a.51.51,0,0,0-.46-.19c-2,.52-3.06-1.07-4.57-1.67-2-.8-3.33-2.45-5.17-3.33-1.05-.5-.87-1.63-1.46-2.3a15.1,15.1,0,0,0-3.34-3.25c-2.5-1.43-3.49-4.06-5.31-6-.49-.52-.37-1.36-.65-2-1.41-2.92-1.85-6.22-3.44-9-2.23-3.95-2.62-8.16-2.29-12.54a1.32,1.32,0,0,1,.47-1.13c1.42-1,1.71-2.64,2-4.11.43-2.58,1.38-4.71,3.72-6,.93-.51,1-1.53,1.64-2.25.77-.95,1.39-1.91,2.79-2,1.57-.08,1.94-1.61,2.68-2.58.61-.8,1.07-1.56,2.17-1.58a1.92,1.92,0,0,0,1.47-1A3.39,3.39,0,0,1,408,192.2c.35,0,.75-.06.9-.4,1-2.32,3.46-1.94,5.3-2.62a8.82,8.82,0,0,0,3-1.17,6.6,6.6,0,0,1,4-1c1.12,0,2.24-.24,3.36-.32a1.24,1.24,0,0,0,.92-.24,3.62,3.62,0,0,1,3.92-1c1.38.5,2.74,1.06,4.13,1.55a3.65,3.65,0,0,1,1.66,1.59q1.44,2,2.79,4.1c.47.72.77,1.49,1.81,1.7s1.3,1.23,1.49,2a13.53,13.53,0,0,1,.79,4.79c-.19,2.11.5,4.27.28,6.45-.08.76-.36,1.81-.83,1.67-1.42-.44-1.66.85-2.36,1.34-1.52,1.08-3,1.93-5,1.67a1.64,1.64,0,0,0-1.24.29,5.22,5.22,0,0,1-3.81,1.6c-.58.06-.64.48-.83.85s-.71.72-1.08.55c-1.47-.69-2.07,0-2.5,1.29-.11.31-.68.56-1.08.67-1.16.33-2.33.54-2.65,2-.09.42-.6.52-1,.68-1.74.62-3.66.91-3.93,3.44-.11,1-1.54,1.52-2.41,2.21-1.75,1.37-1.79,2,.34,2.8,3.63,1.29,6.62,4,10.43,4.82a1.49,1.49,0,0,1,.73.27c2.26,2.6,5.83,3.28,8.25,5.69s4.78,4.77,7,7.37c1.54,1.83,2.59,4.12,4.72,5.43.48.29.32.75.41,1.14a3,3,0,0,0,.75,1.62c1.85,2,2.61,4.42,3.24,7,1.31,5.32,1.56,10.77,1.93,16.19C451.56,281.16,450.83,284.09,448.26,286.1Zm-34.73-34.71c-2.18-.84-3.95-2.47-6.29-3A7.54,7.54,0,0,0,413.53,251.39Zm5.57-15.26c.17-.07.57-.14.58-.26,0-.37-.27-.59-.6-.67s-.72,0-.76.4.42.4.78.53Zm12-45.2c1.56.26,2.36,1.08,3.52.72C433.62,191.57,433.07,190.11,431.15,190.93Z"/><path class="cls-1" d="M539.29,280.48c-.85,1.23-2.16,2.64-3.5,2.95-3.49.8-6.41,3.84-10.37,2.71-2.58,1-4.88-.65-7.33-.88a38.49,38.49,0,0,0-3.9-.26c-1.43,0-2.85-1-4.29-1a13.32,13.32,0,0,1-5.42-1.65c-3.21-1.55-7-1.64-9.86-4-1-.79-2.28-.77-3.44-1.12-1.35-.41-2.68-.89-2.88-2.61.59-.38,1.4.15,2-.49a2,2,0,0,0-2-.85c-1.33.22-2.29-.49-3.35-1.12-3.23-1.9-5.74-4.69-8.71-7-.19.23-.49.44-.47.6.5,3.91-.41,7.8-.18,11.72a108,108,0,0,0,1.68,14.14c.34,1.74,0,3.43.29,5.16.27,1.91-.06,3.91,1.23,5.59a.62.62,0,0,1,.15.49c-.66,2.06.17,4,.56,6.05-.91,0-1.21-.59-1.63-1-2-2-4.22-3.12-7.2-2.07-1.9.67-4.15-.77-5.08-2.58-1.51-3-2.73-6.11-5-8.63-1.34-1.47-1.77-3.4-2.32-5.2a84.68,84.68,0,0,1-3.46-15.62c-.26-2.4-.7-4.88-.19-7.31.2-.94-.3-1.69-.27-2.54.08-1.79-.17-3.54,0-5.37.18-1.46-.35-3.14-.46-4.76a7.39,7.39,0,0,1,.56-3.76,3,3,0,0,0,.23-2,29.34,29.34,0,0,1,.23-11c.07-.33.39-.68.32-.95-1.12-3.88.33-7.68.54-11.5A73.66,73.66,0,0,1,457,212.87a2.4,2.4,0,0,0,.08-1c-.28-1.11-.45-1.93.76-2.87,1-.76-1.08-2.2-.43-3.06,1.2-1.6.37-3.3.65-4.92.8-4.62.61-9.4,2-14a6,6,0,0,0,.3-2c-.09-2.08,1.18-2.94,3.14-2.2a8,8,0,0,1,.89.53c2.89,1.57,2.71.61,3.22-1.75a16.28,16.28,0,0,0,0-2.95c1.45,1.35,2.52,2.32,3.55,3.32a1.91,1.91,0,0,1,.43,1.2c.25,2.44,2.69,3.8,5.23,2.84.44,1.24.22,2.76,1.54,3.67a1.85,1.85,0,0,1,.42,1.46c-.31,2.81,1.09,5.21,1.85,7.74a15.06,15.06,0,0,1,.73,5.77c-.3,4.13-.9,8.23-1.23,12.36s-.89,8.26-1.35,12.39a2.44,2.44,0,0,0-.06.26c0,.68-.22,1.45.52,1.88s1.17,0,1.69-.33a19,19,0,0,0,5.58-4.93,20.42,20.42,0,0,1,5.66-5.2c3.09-2,6.43-3.65,9.08-6.29a1.43,1.43,0,0,0,.58-1.07c0-.32.15-.81.38-.92,2.15-1,3.12-3.67,5.63-4.19.45-.09.92-.18,1-.68.51-2.94,3.08-2.78,5-3,1.48-.19,2.66-.33,3.47-1.69a2.72,2.72,0,0,1,2.2-1.21,34.37,34.37,0,0,0,5.32-1c2.11-.51,3.46.38,4.07,2.69a1.47,1.47,0,0,0,1.22,1.14c2.39.31,2.41,2.24,2.64,3.86a21.6,21.6,0,0,0,.83,3.21c.9,3,1.42,5.87.23,9.05a56.51,56.51,0,0,0-2,6.19c-.32,1.3-1,1.65-2.12,1.37-.85-.2-1.57.38-1.5.83.17,1.19-1.38,1.15-1.3,2.16,0,.1-.31.34-.35.31-1.84-1.16-1.58.88-2.28,1.47-.91.77-1.6,2-3.11,1.6-.69-.19-.59.4-.76.74a7.65,7.65,0,0,1-2.57,3.12c-.67.43-1.36.88-1.94-.14a2,2,0,0,0-.26,1.44,1.84,1.84,0,0,1-.59,1.13c-.7.76-1.9-.82-2.47.55-.37.87-.67,1.75-1.76,2.1-.72.22-.93,1.54-2.13.94-.49-.25-.36.38-.44.65-.17.6-.44.95-1.1.5a.66.66,0,0,0-.48-.06c-.89.25.35,2-.8,1.58a1.47,1.47,0,0,0-1.77.37,8.5,8.5,0,0,1-1.79,1.35,1,1,0,0,0-.44,1.12c.1.68-.34,1-.7,1.54-.62.87-1.77-.49-2.18.7a4.33,4.33,0,0,1-1.24,2.2c-.83.7-.58,1.34.55,1.57,1.35.29,2.73.41,4.11.57,3.36.39,6.37,2.06,9.65,2.74a4.8,4.8,0,0,0,1,.27c3.66,0,7,1.5,10.62,2a15,15,0,0,1,1.72.57c1.47.39,2.83,1.43,4.49.8.21-.08.51.07.76.15.77.24,1.53.59,1.62,1.49s-.85.92-1.44,1.2c-.29.13-.7.07-.85.64,2.05,1.11,4.39,1.18,6.82,1.84.09,1.37,1.21,2.78.57,4.49a.69.69,0,0,0,.26.92c1.18.61.91,1.8,1.05,2.77C538.92,278,540.06,279.36,539.29,280.48Zm-27.15,1.06c-.37-.54-.63-1.38-1.46-1.24a2.75,2.75,0,0,1-1.42-.05c-4.65-1.47-9.33-2.85-14-4.25a2.14,2.14,0,0,0-2.69-.84,2.46,2.46,0,0,0,2.69.84,7.83,7.83,0,0,0,4.15,2.79c2.45.88,5.34.5,7.35,2.61a.52.52,0,0,0,.47.14c1.26-.66,2.12,0,3,.75a1.16,1.16,0,0,0,1.65-.05C512.07,282.05,512.23,281.66,512.14,281.54Zm-17.52-23.67c.45,1,1.08,1.12,2,1.35C496.22,258.16,495.55,258.06,494.62,257.87Zm7.29,3.14,6,1.51c-1.61-1.83-3.78-1.7-5.76-2.25C502.05,260.52,502,260.76,501.91,261Zm12.86,21.54c-.07-.33-.25-.57-.51-.52a.82.82,0,0,0-.55.44c-.09.3.16.48.45.41A2.4,2.4,0,0,0,514.77,282.55Zm5.05.55c-1.12-.31-2-.77-3.33-.17C518.32,283.83,518.32,283.82,519.82,283.1Zm-1.53-18.45a1.11,1.11,0,0,0,1.37.13c-.41-.3-.77-.68-1.32-.55A.54.54,0,0,0,518.29,264.65Zm7.59,18.75c-1.13-.66-2.39.47-3.49-.35-.43-.32-1.17-.83-1.52-.09s.72,1,1.11,1.51c.25.31.64.1,1,0a3.62,3.62,0,0,1,2.78-.08c.47.18.9.13,1-.44S526.17,283.57,525.88,283.4Zm-4.56-18.12a8,8,0,0,0,.93.24.55.55,0,0,0,.68-.3,3.19,3.19,0,0,0-.72-.15A4.42,4.42,0,0,0,521.32,265.28Z"/><path class="cls-1" d="M606.44,209.54c.1.27.61.49.44.84-1,1.92,0,3.92-.3,5.86-.09.63-.11,1.23-.84,1.44-1.66.46-2.9,1.83-4.77,1.94-6.18.38-12,2.21-17.76,4.36a51.65,51.65,0,0,1-8.19,2.6,28.5,28.5,0,0,0-7.61,2.88c-.31.15-.68.49-.92.42-2.33-.67-4.41.63-6.48,1.09-2.31.51-3.9.41-5.43-1.28-.23-.25-.52-.44-.77-.67-.06-.05,0-.17-.07-.27.71-.33,1.34.13,2,.19.44,0,.89.08,1.1-.43a1,1,0,0,0-.36-1.17c-1.31-1.12-2.55-2.4-4.54-2.17a6.31,6.31,0,0,1-1.79-.07c-1.91-.32-2.32-.77-2.41-2.72,0-.61.11-1.23-.51-1.63a1.4,1.4,0,0,1-.66-1.55,2.22,2.22,0,0,0-.67-1.9c-2.51-2.67-1.87-5.93-1.66-9.1.06-.94,1.07-1,1.62-1.55,1.88-1.74,3.94-3.06,6.69-2.77a6,6,0,0,0,4.41-1.59,6.86,6.86,0,0,1,5.21-1.79c1.68.07,3.26.07,4.68-1a2.67,2.67,0,0,1,2-.36,83.53,83.53,0,0,0,13.13.55c2.93-.09,5.86-.18,8.79-.13a24.09,24.09,0,0,1,6.38.46c2.08.61,3.94,2,5.86,3.08a1.39,1.39,0,0,1,.56,1.38c-.09.71-.82.49-1.38.93,1.59,1.35,3.51,2.14,4.24,4.16Zm-6.69,80.89c1,3.56.81,4.22-2.31,6.15-1.48.9-2.75,2-4.72,2.33-1.42.21-2.53,2.13-4.44,1.69-.88,1.59-2.8,1.5-4.09,2.53-1,.8-2.58.82-3.87,1.53a102.08,102.08,0,0,1-10.87,5.19,28.71,28.71,0,0,1-9,2.43c-1.87.1-3.45-1-5.23-1.33a.63.63,0,0,1-.51-.77.66.66,0,0,1,.82-.45c.93.17,1.87.35,2.79.59a2,2,0,0,0,2.16-.37c-1-.64-2-.89-2.89-1.45-1.76-1.13-3.83-.87-5.81-1s-2.06-.28-2.86-2.28a27.34,27.34,0,0,0-2.57-4.47c-.46-.72-1.25-1.24-1.67-2-1.56-2.7-.32-5.36,2.33-7.29,1.8-1.3,3.78-1.81,5.67-2.69,1.24-.58,2.57-.74,3.58-2,.55-.67,2.05-.65,3.14-.75s2.46.05,3.53-.15a24.43,24.43,0,0,0,3.1-.82c1.94-.64,4,.37,5.77-.58,2.38-1.25,4.95,0,7.38-.63.44-.1.92.19,1.36-.31a1.37,1.37,0,0,1,1.16-.41c3.18.89,6.32-1,9.49-.05a6.79,6.79,0,0,0,2,.26c1.43,0,3.1-.6,3.05,1.87,0,.27.77.69,1.24.82,1.51.4,1.81,1.62,2,2.86A9.75,9.75,0,0,0,599.75,290.43Zm3.91-44.74c1.89,2.72.94,5.62.24,8.4-.23.89-1.57,1.24-2.6,1.41s-2.1.93-3,1.12c-2.81.61-4.92,2.73-7.73,3.21a2.23,2.23,0,0,0-1.88,1.15c-.63,1.39-2.44.7-3.27,1.8,0,.06-.59-.23-.87-.42a1.67,1.67,0,0,0-1.48-.21c-3.07.89-6,2-8.32,4.36-.36.37-.76,1.08-1.09,1.05-2.81-.25-4.3,2.85-7,2.71a.44.44,0,0,0-.24.09c-1.93,1.91-4.68,1.41-6.95,2.35a3.16,3.16,0,0,1-1.27.17,5.1,5.1,0,0,1-3-.58c-1-.77-1.48.59-2.53.29-2.38-.66-2.45-.42-3.17-3.23a3.63,3.63,0,0,1,.68.29c.6.47,1,1.83,2,.77.75-.78-.2-1.38-.68-1.94a4.18,4.18,0,0,0-3.06-1.77c-1,0-2-.75-1.7-1.56.6-1.6-.36-3-.12-4.5s-.68-3.17-.81-4.83c-.17-2.15,0-3.9,2.07-5.09,1.76-1,2.21-3.11,3.57-4.49.43-.44.76-1,1.39-1.05,1.15-.18,2.45,0,2.75-1.68.07-.39.75-.27,1.18-.19,1.52.29,2.9.27,3.94-1.2a2.18,2.18,0,0,1,2.14-.63,7.42,7.42,0,0,0,4.75-.65c1-.55,2.28-.19,3.28-.06,2.3.29,4.34-.58,6.49-.86,3.24-.43,6.5-.47,9.75-.62,4.23-.2,8.35,1.08,12.58.7,1.52-.14,4,2.36,3.55,3.78C602.88,244.78,603.24,245.09,603.66,245.69Z"/><path class="cls-1" d="M689.7,294.58c-.14.09-.27.24-.39.24-1.5-.05-2.93-.61-4.51-.5a2.62,2.62,0,0,1-2.8-1.26c-.09-.18-.38-.43-.5-.4-1.12.39-1.8-.76-2.61-.88-3.29-.49-5.62-3-8.71-4-1.6-.5-3.08-1.93-4.75-2.72a35.1,35.1,0,0,1-7-4.44c-1.52-1.23-3.38-2.1-5-3.34-.38-.3-.87-.23-1.32-.32-1.81-.4-3.65-.76-4.64-2.7a1,1,0,0,0-.57-.38,13.28,13.28,0,0,1-4.41-2.84c-2.3-1.95-4.75-3.74-7-5.74a3.15,3.15,0,0,0-1.6-.87c-.4,1.87-1.12,3.7-.66,5.66.27,1.13-1.25,1.42-.84,2.57.29.8.86,1.68.44,2.54-.88,1.81.27,3.95-.92,5.69-.1.14,0,.47.07.69a8.62,8.62,0,0,1-.28,5,12.36,12.36,0,0,0-.4,5.15,11.08,11.08,0,0,1-.29,4.95c-.43,1.3,0,2.78-.2,4.23-.32,2.19-.25,4.43-1,6.56s-.45,4.74-1.21,7a1.47,1.47,0,0,1-.92-.34c-1.24-.71-1.56-.57-1.84.86-.11.57.27,1.48-.71,1.41-.82-.06-.72-.94-.78-1.54-.25-2.47-.53-2.68-2.93-1.95a2.34,2.34,0,0,1-2.8-1.06c-.36-.63-.95-1.1-1.25-1.67-1.31-2.54-3.8-4.17-4.82-6.94a17.37,17.37,0,0,1-1.26-4.58c-.21-2.22-.8-4.4-1.15-6.61a30.59,30.59,0,0,1-.25-9.26,6.15,6.15,0,0,0-.33-2.35,5.84,5.84,0,0,1,.27-3.73,10.44,10.44,0,0,0,.6-5.43,9,9,0,0,1,.13-3.35c.9-3.57.62-7.32,1.54-10.88a2.14,2.14,0,0,0-.09-1.42c-1-1.79-.07-3.62-.26-5.38a18.1,18.1,0,0,1,.38-4.67c.3-2.05.89-4.05.66-6.16,0-.35.26-.56.56-.68s.72-.53.55-.91c-.87-1.93.74-3.72.2-5.62a1.59,1.59,0,0,1,0-.72,41.07,41.07,0,0,0,1.55-9.5,5.25,5.25,0,0,1,.88-2.36c1.19-2.2.72-4.5.74-6.74a3.87,3.87,0,0,1,.34-2c.19-.34.59-.66.41-1.06-.61-1.31.28-2.22.92-2.95a1.85,1.85,0,0,0,.43-1.65c0-.87-.49-1.95.73-2.48a.68.68,0,0,0,.22-.62c-.72-1.6.29-2.66,1-3.89a3.36,3.36,0,0,0,.34-3c-.4-1,0-1.53.88-1.85.36-.13.86-.21,1-.49,1.23-2,2.89-1.78,4.8-.92.37-.88-.4-1.94.59-2.32.69-.26.87-1.46,1.55-1.18,1.14.46,2.45,1.35,2.58,2.56a3,3,0,0,0,2,2.58c.91.42,1.92-.23,2.79-.54s1.51-1.38,2.26-1.87,1.88.15,2.83-.34c.26-.14.65-.08.85-.27,2-1.82,4.33-1.62,6.65-1.36,2,.22,4,.56,6,.91,2.61.46,4.58,1.88,6.78,3,2.61,1.36,4.43,3.69,6.58,5.6a11.89,11.89,0,0,0,2.16,1.67,2.38,2.38,0,0,1,.93.66c2.28,4,4.8,8,5.24,12.86a34,34,0,0,0,1.37,5.09,20.65,20.65,0,0,1,.68,4.51,3.74,3.74,0,0,1-.46,2.27c-.72,1.18-.5,2.62-.56,4,0,.74,0,1.2-1,1.54s-1.31,1.68-1.92,2.59a21.78,21.78,0,0,1-2.76,3.71,17.19,17.19,0,0,0-2.52,3.5c-.7,1.19-1,.17-1.67-.21.11,1.06-.08,1.93-1.08,2.36-1.69.73-3.25,1.6-3.86,3.64-.22.7-1.2.45-1.69,1.09a13.77,13.77,0,0,1-4.66,3.36c-1.34.73-2.37,2.13-3.8,2.39s-2.14,1.18-3.29,1.5c-.28.07-.64-.11-.75.31s.16.68.54.9c2.57,1.44,5.13,2.92,7.69,4.39a98.09,98.09,0,0,0,9.64,5c1.94.84,3.77,2.17,5.68,3,3.31,1.49,5.71,4.27,8.83,6a8.64,8.64,0,0,1,2.47,2.13,7.11,7.11,0,0,0,2.26,2,4.05,4.05,0,0,1,2.69,4.18,6.87,6.87,0,0,0,1,3.64c1,1.71,1.18,3.72,1.79,6.1-2.36-1.45-4.86-.37-6.67-2.09-2.31,1-4.24-1.19-6.51-.86a18.74,18.74,0,0,0,4.35,2.11c1.49.31,3,.69,4.46,1A1.68,1.68,0,0,1,689.7,294.58Zm-40.55-70.17a10.57,10.57,0,0,1,3.22-3.2c1.14-.67,2.66-1.47,3.09-3.29a3.17,3.17,0,0,1,1.68-2.18c1.11-.46.5-1.46.36-2.07-.1-.45-1.13-.59-1.58-.29-1.65,1.11-3.27.51-4.85,0-1.88-.58-3.81-.34-5.41-.62-2.83.37-5.48.54-5.64,4.19a.4.4,0,0,1-.1.22c-1.06,1.56-1.22,3.42-1.47,5.22-.37,2.74-.53,5.52-1.74,8.07a4.47,4.47,0,0,0-.28,1.16c-.07.47-.18,1,.41,1.23a1,1,0,0,0,1.24-.29c2.42-2.24,5.28-3.79,8-5.57A10.79,10.79,0,0,0,649.15,224.41Zm7.26-29.87c2.23.65,4.29,1.39,6.6,1.21C660.66,194.3,657.91,193.76,656.41,194.54Z"/><path class="cls-1" d="M223.37,345.36c0-17.29,12.29-29.82,29.46-29.82,12.72,0,22.68,7,26.64,18.25h-2.81c-3.84-9.72-12.59-15.59-23.83-15.59-15.52,0-26.71,11.34-26.71,27.16s11.13,27,26.71,27c11.55,0,20.51-6.19,24.33-16.6h2.75c-3.91,12-14.05,19.27-27.08,19.27C235.59,375.05,223.37,362.64,223.37,345.36Z"/><path class="cls-1" d="M290.31,355.49V329.6H293v25.58c0,10.68,6.19,17.31,16.14,17.31s16.15-6.65,16.15-17.31V329.6h2.64v25.89c0,11.92-7.26,19.58-18.79,19.58S290.31,367.41,290.31,355.49Z"/><path class="cls-1" d="M366.22,328.73c13.23,0,22.65,10,22.65,23.17s-9.42,23.17-22.65,23.17a22.19,22.19,0,0,1-20.28-12.4V390H343.3V329.6h2l.53,11.67a22.18,22.18,0,0,1,20.35-12.54Zm20,23.17c0-11.89-8.49-20.59-20.14-20.59s-20.21,8.84-20.21,20.59,8.69,20.59,20.21,20.59S386.21,363.79,386.21,351.9Z"/><path class="cls-1" d="M397.23,351.9c0-13.3,9.87-23.17,22.9-23.17,9.87,0,17.62,5.58,20.75,14H438.2c-3.12-7.14-9.91-11.46-18.07-11.46-11.56,0-20.21,8.86-20.21,20.59s8.73,20.59,20.21,20.59A19.33,19.33,0,0,0,438.3,360.9H441a21.77,21.77,0,0,1-20.9,14.17C407.17,375.07,397.23,365.08,397.23,351.9Z"/><path class="cls-1" d="M463.52,352.17h-8.35v22h-2.64V313.85h2.64v35.82h8.39L481,329.6h3.31l-18.48,21.33,20.13,23.27h-3.37Z"/><path class="cls-1" d="M535.37,329.6v44.6h-2.31l-.29-11.64c-3.58,7.54-11,12.51-20.36,12.51-13,0-22.75-10-22.75-23.17s9.78-23.17,22.75-23.17c9.35,0,16.8,5,20.37,12.53l.34-11.66Zm-2.68,22.3c0-11.89-8.49-20.58-20.14-20.58s-20.21,8.89-20.21,20.58,8.69,20.59,20.21,20.59S532.69,363.8,532.69,351.9Z"/><path class="cls-1" d="M592,352.71H550.32c.4,11.41,8.71,19.76,19.74,19.76,7.87,0,14.15-4.09,17.72-11h2.81c-4.21,8.82-11.4,13.59-20.53,13.59-12.72,0-22.36-10-22.36-23.23s9.64-23.11,22.36-23.11,21.93,10,21.93,22.86C592,351.94,592,352.36,592,352.71Zm-21.89-21.44c-10.78,0-19,8-19.7,18.94h39c-.68-11.29-8.85-18.94-19.33-18.94Z"/><path class="cls-1" d="M599.78,362.06h2.6c.7,6.67,6,10.51,14.45,10.51s14.15-4,14.15-10.18c0-7.72-7.27-9.08-14.62-10.32-7.73-1.32-15.69-2.71-15.69-11.46,0-7.09,6.4-11.88,15.81-11.88s15.51,4.77,15.94,12.48h-2.54c-.43-6.3-5.37-10-13.44-10s-13.19,3.76-13.19,9.37c0,6.69,6.44,7.77,13.71,9,7.8,1.3,16.64,2.89,16.64,12.78,0,7.68-6.73,12.76-16.83,12.76S600.48,370.16,599.78,362.06Z"/></svg>