<svg id="Lag_1" data-name="Lag 1" xmlns="http://www.w3.org/2000/svg" viewBox="0 0 500 200"><defs><style>.cls-1,.cls-2{fill:#fff;}.cls-2{font-size:70.96px;font-family:Cunia-Bold, Cunia;font-weight:700;letter-spacing:-0.08em;}.cls-3{letter-spacing:-0.1em;}.cls-4{letter-spacing:-0.08em;}</style></defs><title>logo</title><path class="cls-1" d="M74.6,75.77c0-.44.05-.89.05-1.34a18.16,18.16,0,0,0-8.78-15.56q0-.54,0-1.08a18.16,18.16,0,0,0-36.32,0c0,.24,0,.47,0,.71a18.16,18.16,0,0,0-9.43,15.93,18.16,18.16,0,0,0,0,36.32H67.74a18.16,18.16,0,0,0,6.86-35Z"/><path class="cls-1" d="M44,113.15H12A7.54,7.54,0,0,0,5.17,123.9l15.39,32.73A7.54,7.54,0,0,0,27.38,161H60.52a7.54,7.54,0,0,0,6.82-4.33L82.73,123.9a7.54,7.54,0,0,0-6.83-10.75Z"/><text class="cls-2" transform="translate(98.36 96.45)">OLSKER<tspan x="0" y="62.09">Cupca</tspan><tspan class="cls-3" x="224.29" y="62.09">k</tspan><tspan class="cls-4" x="264.73" y="62.09">es</tspan></text></svg>