<?xml version="1.0" encoding="utf-8"?>
<!-- Generator: Adobe Illustrator 22.0.1, SVG Export Plug-In . SVG Version: 6.00 Build 0)  -->
<svg version="1.1" id="Lag_1" xmlns="http://www.w3.org/2000/svg" xmlns:xlink="http://www.w3.org/1999/xlink" x="0px" y="0px"
	 viewBox="0 0 500 200" style="enable-background:new 0 0 500 200;" xml:space="preserve">
<style type="text/css">
	.st0{fill:#FFFFFF;}
	.st1{enable-background:new    ;}
</style>
<title>logo</title>
<g>
	<g>
		<path class="st0" d="M42.8,110.4h47.6c10,0,18.2-8.1,18.2-18.1c0-7.4-4.5-14.1-11.4-16.9c0-0.4,0-0.9,0-1.3
			c0-6.4-3.3-12.3-8.8-15.6c0-0.4,0-0.7,0-1.1c0-10-8.1-18.2-18.2-18.2s-18.2,8.1-18.2,18.2c0,0.2,0,0.5,0,0.7
			c-5.8,3.2-9.4,9.3-9.4,15.9c-10,0-18.2,8.1-18.2,18.2C24.6,102.3,32.8,110.4,42.8,110.4z"/>
	</g>
	<g>
		<path class="st0" d="M101.8,113.6c-1-0.5-2.1-0.7-3.2-0.7H66.7h-32c-4.2,0-7.5,3.4-7.5,7.5c0,1.1,0.2,2.2,0.7,3.2l15.4,32.7
			c1.2,2.7,3.9,4.4,6.8,4.4h33.1c2.9,0,5.6-1.7,6.8-4.3l15.4-32.8C107.2,119.8,105.5,115.3,101.8,113.6z"/>
	</g>
</g>
<g class="st1">
	<path class="st0" d="M124.4,77.5c-0.1-1.3-0.1-3.3-0.1-6.1c0-2.8,0-4.8,0.1-6.2c0.4-13.2,9.5-19.5,22.1-19.5s21.6,6.3,22,19.5
		c0.1,2.8,0.1,4.8,0.1,6.2c0,7.5,0,15.2-6.2,20.5c-3.9,3.3-9.2,4.9-15.9,4.9C133.8,96.8,124.8,90.9,124.4,77.5z M154.7,77.1
		c0.1-2.8,0.1-4.7,0.1-5.9c0-1.2-0.1-3.1-0.1-5.7c-0.1-5.3-2.6-9.1-8.2-9.1c-5.7,0-8.2,3.7-8.3,9.1c-0.1,1.3-0.1,3.3-0.1,5.7
		c0,2.6,0,4.5,0.1,5.9c0.1,5.3,2.7,9.1,8.3,9.1S154.5,82.4,154.7,77.1z"/>
	<path class="st0" d="M171,52.6c0-3.3,2.9-6.1,6.2-6.1h5.5c0.5,0,0.9,0.1,1.2,0.5c0.4,0.4,0.5,0.8,0.5,1.3v34.4
		c0,0.4,0.2,0.9,0.6,1.3c0.4,0.6,0.9,0.9,1.6,0.9h19c0.5,0,1,0.1,1.3,0.4c0.4,0.4,0.5,0.8,0.5,1.3v7.5c0,0.6-0.1,1-0.5,1.3
		c-0.4,0.4-0.9,0.5-1.3,0.5h-32.9c-0.9,0-1.8-0.9-1.8-1.8V52.6z"/>
	<path class="st0" d="M226.5,96.7c-9.2,0-21-3.5-21.6-14.3c0-0.4,0.1-0.8,0.5-1.1c0.3-0.3,0.6-0.4,1.1-0.4h9.4c0.3,0,0.6,0,0.8,0.1
		c0.2,0.1,0.4,0.1,0.6,0.2c0.4,0.2,0.7,0.5,1.2,1c1.6,3,4.8,3.9,8,3.9c1.6,0,3.5-0.1,5-0.8c0.8-0.3,1.4-0.7,2-1.3
		c0.6-0.6,0.9-1.3,0.9-2.3c0-2.6-2.3-3.4-4.4-4.1c-0.8-0.3-1.8-0.6-2.8-0.9c-9.2-1.7-20.9-4-20.9-15.8c0-10.9,10.5-15,19.8-15
		c3.3,0,6.6,0.5,9.8,1.6c5,2.1,10.2,6.5,10.6,12.2c0,0.4-0.1,0.7-0.4,1.1c-0.4,0.4-0.7,0.5-1.1,0.5H235c-1,0-1.8-0.4-2.3-1.3
		c-0.3-1-1-1.8-2.2-2.6c-1.3-0.6-2.8-1-4.4-1c-2.1,0-4.4,0.3-5.7,2.1c-0.4,0.6-0.6,1.3-0.6,2.1c0,1.3,0.7,2.4,2.1,3.2
		c1.4,0.8,4,1.6,7.9,2.3c9.1,1.8,18.2,4,18.2,14.9C248.1,92.7,236.2,96.7,226.5,96.7z"/>
	<path class="st0" d="M275.2,73l0.9,0.9L291,93.6c0.2,0.1,0.3,0.4,0.3,0.9c0,0.4-0.1,0.7-0.4,1c-0.4,0.3-0.7,0.4-1.1,0.4h-11.1
		c-1.2,0-2.2-0.4-2.8-1.3c-2.2-2.9-4.3-5.5-6-7.8c-1.1-1.3-2-2.5-2.6-3.3c-0.6-0.9-1.3-1.6-1.8-2.4c-0.6-0.7-1.1-1.3-1.4-1.8
		c-0.4-0.5-0.7-0.9-0.8-1h-0.3c-0.4,0-0.4,0.1-0.4,0.3v15.8c0,0.5-0.1,0.9-0.5,1.2c-0.4,0.4-0.8,0.5-1.3,0.5h-9.4
		c-0.5,0-0.9-0.1-1.2-0.5c-0.4-0.3-0.6-0.7-0.6-1.2V52.6c0-3.4,2.7-6.1,6.1-6.1h5.1c1.1,0,1.8,0.7,1.8,1.8v14.3
		c0,0.2,0.1,0.4,0.4,0.4l12.1-15.1c0.6-0.9,1.5-1.3,2.8-1.3h10.8c0.4,0,0.7,0.1,1.1,0.4c0.3,0.3,0.4,0.6,0.4,1
		c0,0.5-0.1,0.8-0.3,0.9c-2.4,3.2-4.6,6-6.5,8.5c-1.6,2-3.1,4-4.6,6.1c-0.6,0.8-1.1,1.3-1.5,1.8c-0.4,0.5-0.6,0.8-0.7,0.9
		c-0.1,0.1-0.4,0.4-0.7,0.9c-1.2,1.7-4.1,3.2-6.3,3.2C271.5,70.1,273.7,71.4,275.2,73z"/>
	<path class="st0" d="M291.2,52.7c0-3.5,2.7-6.2,6.2-6.2h28.9c1.1,0,1.8,0.7,1.8,1.8v7c0,0.5-0.1,0.9-0.5,1.2
		c-0.4,0.4-0.8,0.5-1.3,0.5h-26.2c2.1,0,3.9,1.7,3.9,3.8v3c0,1.2,0.9,2.2,2.1,2.2h15.5c1.1,0,1.8,0.7,1.8,1.8v6.4
		c0,1.1-0.8,1.8-1.8,1.8h-21.5c2,0,3.9,1.6,3.9,3.7v3.3c0,1.2,0.9,2.2,2.1,2.2h20.7c1.2,0,1.8,0.6,1.8,1.8v7c0,0.6-0.1,1-0.5,1.3
		c-0.4,0.4-0.9,0.5-1.3,0.5H293c-0.9,0-1.8-0.9-1.8-1.8V52.7z"/>
	<path class="st0" d="M361.8,96c-1.3,0-2.3-0.6-2.8-1.8L351.7,80c-0.4-0.8-1.1-1.1-1.9-1.1h-9.3c1.2,0,2.1,0.4,2.8,1.2
		c0.6,0.9,1,1.7,1,2.6v11.7c0,0.5-0.1,0.9-0.5,1.2c-0.4,0.4-0.8,0.5-1.3,0.5h-9.7c-0.8,0-1.8-0.9-1.8-1.7V52.7
		c0-3.5,2.7-6.1,6.2-6.1h15c10.9,0,19.9,4.5,19.9,16.2c0,5.7-2.6,10.4-7.6,13.2c-0.4,0.2-0.6,0.5-0.6,0.9c-0.1,0.4,0,0.6,0.1,0.8
		l8.9,16.2c0.1,0.3,0.2,0.6,0.2,0.8c0,0.4-0.1,0.7-0.4,1c-0.4,0.3-0.7,0.4-1.1,0.4H361.8z M356.7,58.2c-1.2-1-2.7-1.5-4.5-1.5H340
		c2.1,0,3.9,1.6,3.9,3.8v5.7c0,0.6,0.2,1.1,0.6,1.5c0.4,0.4,0.9,0.6,1.5,0.6h6.2c3.7,0,6.2-1.8,6.2-5.7
		C358.5,60.8,357.9,59.3,356.7,58.2z"/>
</g>
<g class="st1">
	<path class="st0" d="M124.4,139.7c-0.1-1.3-0.1-3.3-0.1-6.2s0-5,0.1-6.4c0.4-13.1,9.6-19.2,22.1-19.2c10.9,0,22.1,5.2,22.3,17.2
		c0,0.4-0.1,0.8-0.4,1.1c-0.4,0.3-0.7,0.4-1.1,0.4h-10.1c-0.6,0-1.1-0.1-1.4-0.4c-0.4-0.2-0.6-0.7-0.9-1.4c-1.3-4.5-3.7-6.2-8.4-6.2
		c-5.3,0-8.1,3-8.3,8.9c-0.1,1.3-0.1,3.3-0.1,5.9c0,2.6,0,4.7,0.1,6c0.2,6,3,8.9,8.3,8.9c4.5,0,7.1-1.8,8.4-6.2
		c0.2-0.7,0.4-1.2,0.8-1.5c0.4-0.2,0.9-0.4,1.5-0.4h10.1c0.4,0,0.8,0.1,1.1,0.4c0.3,0.3,0.4,0.6,0.4,1.1
		c-0.2,12.3-11.6,17.2-22.3,17.2C133.8,158.9,124.8,153,124.4,139.7z"/>
	<path class="st0" d="M170.1,114.8c0-3.3,2.8-6.1,6.2-6.1h5.3c1.1,0,1.8,0.7,1.8,1.8v28.7c0,5.3,2.6,8.8,8.1,8.8c5.6,0,8-3.5,8-8.8
		v-24.4c0-1,0.2-1.8,0.6-2.6c0.4-0.8,0.9-1.4,1.5-1.9c0.6-0.5,1.2-0.9,2-1.2c0.7-0.2,1.4-0.4,2.1-0.4h5.3c1.1,0,1.8,0.7,1.8,1.8
		v28.8c0,13.7-8.7,19.5-21.2,19.5c-13.2,0-21.4-6.3-21.4-19.5V114.8z"/>
	<path class="st0" d="M238.4,141h-6c-1.2,0-2.1,0.9-2.1,2.1v13.1c0,0.5-0.1,0.9-0.5,1.2c-0.3,0.4-0.7,0.6-1.3,0.6h-10.1
		c-0.9,0-1.8-0.9-1.8-1.8v-41.5c0-2.8,1.6-4.8,4-5.8c0.7-0.2,1.4-0.4,2.1-0.4h15.6c11.1,0,19.6,4.6,19.6,16.4
		C258,137.1,248.8,141,238.4,141z M238,118.7h-12c0.4,0,0.8,0.1,1.3,0.2c0.5,0.2,0.9,0.4,1.3,0.8c0.9,0.9,1.4,1.6,1.4,2.9v6.1
		c0,0.6,0.2,1.2,0.7,1.6c0.4,0.4,0.9,0.6,1.5,0.6h5.7c3.8,0,6.2-2.1,6.2-6C244.2,120.8,242.1,118.7,238,118.7z"/>
	<path class="st0" d="M257.2,137.2v-7.5c0-1.1,0-1.9,0.1-2.6c0.3-13.3,10.1-19.2,22-19.2c10.9,0,21.9,5.2,22.1,17.2
		c0,0.4-0.1,0.8-0.4,1.1c-0.4,0.3-0.7,0.4-1.1,0.4h-10c-0.7,0-1.2-0.1-1.5-0.4c-0.4-0.3-0.6-0.8-0.8-1.4c-1.3-4.5-3.6-6.2-8.3-6.2
		c-5.3,0-8.1,3-8.3,8.9c-0.1,0.6-0.1,1.5-0.1,2.4v7c0,1,0,1.8,0.1,2.5c0.2,6,3,8.9,8.3,8.9c2.1,0,3.8-0.5,5.3-1.4
		c1.3-1,2.3-2.6,3-4.8c0.4-1.3,0.9-1.8,2.3-1.8h10c0.4,0,0.8,0.1,1.1,0.4c0.3,0.3,0.4,0.6,0.4,1.1c-0.3,12.2-11.6,17.2-22.1,17.2
		c-12.7,0-21.7-6.2-22-19.2C257.2,139.1,257.2,138.3,257.2,137.2z"/>
	<path class="st0" d="M298.7,156.7c0-0.4,0-0.6,0.1-0.6l16.5-45.3c0.5-1.3,1.5-2.1,2.8-2.1h11c1.3,0,2.3,0.7,2.8,2.1l16.5,45.3
		c0.1,0.1,0.1,0.3,0.1,0.6c0,0.8-0.7,1.5-1.5,1.5h-9.2c-1.2,0-2-0.5-2.4-1.6l-3.7-10c-5.9,2.2-12.3,3.1-18.5,3.1h-2.5
		c0.8,0.1,1.4,0.6,1.9,1.3c0.5,0.9,0.6,1.8,0.1,2.9l-1,2.7c-0.4,1.1-1.2,1.6-2.4,1.6h-9.2c-0.4,0-0.7-0.1-1.1-0.4
		C298.8,157.4,298.7,157.1,298.7,156.7z M323.5,121.2l-6.4,18.4c3.6-0.2,8.6-1.1,11.8-2.8L323.5,121.2z"/>
</g>
<g class="st1">
	<path class="st0" d="M376,135.1c0.4,0.4,0.6,0.8,0.9,1l14.8,19.6c0.2,0.2,0.3,0.5,0.3,0.9c0,0.4-0.1,0.7-0.4,1
		c-0.3,0.4-0.6,0.5-1.1,0.5h-11.1c-1,0-2.3-0.5-2.8-1.4c-2.2-2.9-4.3-5.5-6-7.8c-1.1-1.3-2-2.5-2.6-3.3c-1.1-1.3-2.3-2.8-3.3-4.2
		c-0.4-0.5-0.7-0.9-0.8-1h-0.3c-0.4,0-0.4,0.1-0.4,0.2v15.8c0,0.5-0.1,0.9-0.5,1.2c-0.3,0.4-0.7,0.6-1.3,0.6h-9.4
		c-0.9,0-1.8-0.9-1.8-1.8v-41.5c0-3.5,2.7-6.2,6.2-6.2h5c0.6,0,1,0.1,1.3,0.5c0.4,0.4,0.5,0.8,0.5,1.3v14.3c0,0.3,0.1,0.4,0.4,0.4
		l12.1-15.1c0.6-0.9,1.5-1.4,2.8-1.4h10.9c0.4,0,0.7,0.1,1,0.4c0.3,0.4,0.4,0.7,0.4,1.1c0,0.4-0.1,0.6-0.3,0.9
		c-2.4,3.1-4.6,6-6.5,8.4c-2.1,2.6-4.2,5.3-6.1,8c-0.4,0.5-0.6,0.8-0.7,0.9c-1,2-4.7,4-7,4C372.3,132.3,374.4,133.5,376,135.1z"/>
</g>
<g class="st1">
	<path class="st0" d="M390.6,114.8c0-3.5,2.7-6.2,6.2-6.2h28.9c0.9,0,1.8,0.9,1.8,1.8v7c0,0.5-0.2,0.9-0.6,1.2
		c-0.4,0.4-0.8,0.5-1.3,0.5h-26.3c2.1,0,3.9,1.7,3.9,3.8v3c0,1.3,1,2.2,2.2,2.2H421c1.2,0,1.8,0.6,1.8,1.8v6.4
		c0,1.2-0.6,1.8-1.8,1.8h-21.5c2,0,3.9,1.6,3.9,3.7v3.3c0,0.5,0.2,1,0.6,1.5c0.4,0.5,0.9,0.7,1.6,0.7h20.7c1.1,0,1.8,0.7,1.8,1.8v7
		c0,1-0.9,1.8-1.8,1.8h-33.9c-1.1,0-1.8-0.7-1.8-1.8V114.8z"/>
	<path class="st0" d="M449.2,158.8c-6.6,0-14.7-1.6-18.9-7.2c-1.7-2.2-2.6-4.5-2.6-7c0-0.4,0.1-0.8,0.4-1.1c0.4-0.3,0.8-0.4,1.1-0.4
		h9.4c1.2,0,1.8,0.3,2.6,1.3c0.9,1.5,2,2.6,3.5,3.1c1.4,0.6,3,0.9,4.6,0.9c0.7,0,1.5-0.1,2.4-0.2c0.9-0.1,1.8-0.3,2.6-0.6
		c1.6-0.6,2.9-1.7,2.9-3.5c0-1.2-0.5-2.1-1.5-2.8c-1-0.6-2-1-3-1.3c-2.2-0.6-4.4-1.1-6.7-1.7c-8.7-1.7-17-5-17-15
		c0-10.9,10.6-15,19.8-15c6.6,0,13.6,2.2,17.7,7.5c1.6,2.1,2.5,4.3,2.6,6.3c0,0.4-0.1,0.8-0.4,1.1c-0.3,0.3-0.6,0.4-1.1,0.4h-9.9
		c-1.1,0-1.8-0.4-2.4-1.3c-0.2-0.6-0.5-1.2-1-1.7c-0.5-0.4-1-0.8-1.6-1.1c-0.6-0.2-1.3-0.4-2-0.6c-0.6-0.1-1.3-0.1-1.9-0.1
		c-2.8,0-6.2,0.7-6.2,4.1c0,1.3,0.7,2.5,2.1,3.3c1.4,0.8,4,1.6,7.9,2.3c9.1,1.4,18.2,4.3,18.2,14.9
		C470.7,154.7,458.9,158.8,449.2,158.8z"/>
</g>
</svg>
